<svg xmlns="http://www.w3.org/2000/svg" xmlns:xlink="http://www.w3.org/1999/xlink" id="Camada_1" x="0px" y="0px" viewBox="0 0 576.3 593" style="enable-background:new 0 0 576.3 593;" xml:space="preserve"><style type="text/css">	.st0{fill:#DADADA;stroke:#FFFFFF;stroke-width:0.5;stroke-linecap:round;stroke-linejoin:round;}	.st1{fill:#C1E2D3;stroke:#FFFFFF;stroke-width:0.5;stroke-linecap:round;stroke-linejoin:round;}	.st2{fill:#C1E2D3;stroke:#69A49E;stroke-width:0.5;stroke-linecap:round;stroke-linejoin:round;}</style><path class="st0" d="M573.1,177.6c-0.9,0.3-1.9,0.6-2.9,0.7l-3.2,0.3c0,0-2.1-1.8-2.3-1.7s-1.6-0.3-1.8,0c-1.1,0.2-2.3,0.3-3.5,0.2 c-0.7-0.3-1.5-0.6-2.1-1h-1c-0.6-0.1-1.2-0.1-1.9,0c-0.3-0.2-0.6-0.4-0.9-0.6c-0.5-0.4-1.3-1.5-1.8-1.4s-1.5,0-1.6,1s-0.5,1.2,0,1.8 s0.2,0.2,0.2,0.2l0.3,0.4c0.6,0.8,0.8,1.1,0.6,1.5s-0.8,0.6-0.8,1c0,0.6,0.2,1.2,0.5,1.8c0.1,0.1,0.1,0.1,0.2,0.2 c0.1,0.2,0.1,0.3,0.1,0.5c0,0.1-0.1,0.2-0.1,0.2c-0.3,0.4-1,0.5-1.2,0.9s-1,1.3-1.3,1.3s-1.4-0.3-1.5-0.9s0.1-2.4-0.4-2.5 s-0.8-1.1-1.5-0.6s-1,1.1-1.5,1.2s-1.8-1-2.1-1c-0.7,0.2-1.5,0.5-2.2,0.8c-0.1,0.1-0.3,0.1-0.4,0.1c-0.2,0-0.3,0-0.4-0.1 c-0.4-0.3-1-2-1.2-2.1c-0.3-0.7-0.4-1.4-0.3-2.2c0-0.4-0.2-0.3,0.5-1.3s0.4-1.7,1-1.9s2.2,0,2.2-0.6s0.4-1.8,0.4-2s1.3-2.4-0.4-1.9 s-3.2,0.8-3.7,1.4c-0.5,0.5-1.1,1-1.8,1.2c-0.7,0.4-1.9,0.3-2.6,0.7c-0.7,0.4-1.2,1-1.6,1.7c-0.6,1,0.2,0.7-1.3,1.7 c-0.9,0.7-1.9,1.1-3,1.4c-0.9-0.1-1.8-0.3-2.6-0.6c-0.1-0.2-2.4-2.4-2.4-2.4c-0.2-0.4-0.7-0.5-1.1-0.4c-0.3,0.1-0.6,0.1-0.8,0 c0-0.8,0.6-2,2.7-3.5s2.1-1.4,3.4-2.4s1.3-1.6,2-2.9s1.2-2.7,2.5-4.8s2-2.7,2.4-3.8c0.3-1.4,0.8-2.7,1.5-3.9c0.6-1,0.9-0.5,2.4-0.6 c1.4-0.1,2.8-0.4,4.2-0.7c0.5,0.3,1,0.6,1.5,0.9c0.9,0.4,2.8,0.5,3.7,1.4s2.5,0.6,5.2,0.9c1.8,0.3,3.7,0.1,5.5-0.5 c2.3-0.2,4.7-0.1,6.9,0.4c1.2,0.3,3.8,3.9,4.6,5c1.2,3,2.2,6,3,9.1C571.2,170.9,572.2,174.3,573.1,177.6z"></path><path class="st1" d="M391.5,318.5c0,0.3-0.5,0.4-0.8,0.8s-0.4,2-0.4,2.4s0.8,1-0.1,1.3c-1.1,0.2-2.3,0.4-3.4,0.5 c-1.7,0-3.3-0.2-5-0.5c-2.4-0.3-4.4-0.3-5-0.4c-0.2-0.1-0.4-0.2-0.5-0.4c-0.1-0.2-0.2-0.4-0.3-0.6c-0.1-0.2-0.1-0.4,0-0.6 c0-0.2,0.1-0.4,0.2-0.6c0.4-0.5,0.8-0.9,1.3-1.3c0.3-0.2,1.1-0.7,1.1-0.9c-0.2-0.7-0.2-1.5,0.1-2.3c0.5-0.8,1.4-2,2.2-2 c1.4-0.1,2.8-0.1,4.2,0c0.7,0.2,1.4,0.4,2.1,0.6l2.6,0.1l1.6,1.8L391.5,318.5z"></path><path class="st2" d="M372.8,493.5c0.2,0.6,1.8,3,1.8,3c-0.2,1-0.5,2-0.9,3c-0.7,3.4-1.2,6.9-1.5,10.4c-0.3,1.8-4.8,5.7-7.4,7.5 l-0.4,0.3l-0.4,0.3c-3,2.7-5.7,5.6-8.2,8.7c-0.5-1.1-0.9-1.8-1-1.9c-0.4-0.7-0.9-1.4-0.9-1.4s-1.4,0.4-1.8,0.1s-1.2,1-2.2,0 s0,0,0.4-0.6c0.9-1.1,1.7-2.2,2.4-3.4c0.5-1.3,0-2.4,0.4-2.8c1.4-0.7,2.5-1.8,3.1-3.1c1.1-2.4-2.4-1.4-2.8-1.4s-5.2,0.6-6.7,0.6 c-2.4-0.4-4.6-1.7-6.2-3.5c-1.1-1.6-10.7-8.8-10.9-9.5s-1.8-1-1.8-1s-5-0.9-6.4-1.4s-5.1-2.6-8.2-3.7c-3.8-0.8-7.6-1-11.4-0.8h-7.3 l0.2-0.1l0.4-0.2l0.4-0.2h0.2c1-1.1,1.7-2.5,2-4c0.4-2.6,0.6-5.2,0.5-7.9c0.1-0.4,0.1-0.8,0-1.2c1-0.4,2-0.8,3.1-1 c0.6,0,2-0.2,2.4,0.8s2.5,1.4,2.5,1.4s0.6-1.4,1.4-1.1s2.5-1.1,3.4,0c0.9,1,2.1,1.8,3.3,2.4c1,0.1,1.9,0.1,2.9,0 c1.1,0,3.1-0.2,4.1,0.6c0.5,0.4,1,0.8,1.5,1.1c0.9-0.2,1.8-0.2,2.7,0c1.3,0.4,4.3,2.8,5.4,2.7s2.9,0.1,2.9-0.6v-2.8 c0-1.1-0.3-4.5,2-4.5s3.4,0,3.4,0c0.5-0.2,1.1-0.5,1.5-0.9c0.4-0.4,2.5-2.1,3.1-2c0.6,0.2,1.3,0.4,1.9,0.6c0,0,0.1-0.3,1.9-0.6 s3.5-0.9,3.9-0.9c1.2,0.1,2.4,0.6,3.3,1.5c0.7,1.1,1.4,1.8,1.9,1.9s1.1,0.9,2.4,0.1s3-2.4,4-2.9c3-0.7,6.2-0.7,9.3,0 c0.4,0.8,1,1.5,1.6,2.1l1.4,1.5c-1.2,1.8-2.3,3.7-3.1,5.7v5.3C372.4,491.2,372.5,492.4,372.8,493.5L372.8,493.5z"></path><path class="st0" d="M473.4,121.6c-0.1,0.6-0.3,1.2-0.4,1.6c-0.4,1.6-2.2,3-3,3.8c-1.1,0.9-2.2,1.8-3.4,2.6 c-1.3,0.8-2.7,1.2-4.2,1.4c-0.9,0.9-1.8,1.8-2.6,2.9c-1.2,1.6,0,1.9,0,2.9c-0.3,1.3-0.9,2.5-1.8,3.5c-0.9,1.2-2.6,3.2-2.6,3.2 c0.1,0.4,0.2,0.9,0.3,1.3c0.2,1,1.4,2,1.4,2.6c-0.1,0.7-0.5,1.4-1,2c-0.3,0.4-0.4,0.9-0.5,1.4c-0.1,0.5,0,1,0.2,1.5 c0.4,1.1,0.9,2.1,1.5,3c0.5,1.1,0.8,2.4,0.8,3.7c-0.1,0.8-0.6,1.5-1.2,2c-0.6,0.6-2,1.2-2.7,2.4s-0.4,6.6-0.4,7.6s1.2,1.1,1.6,1.4 c0.6,0.4,1.3,0.7,2,0.9c0.8,0.2,1.2,1.1,1.4,1.7c0,1-0.2,2-0.5,3c-0.4,1.1-1.1,2-1.8,2.9c-0.8,1-2.1,0.3-3,0.3s-1.9,1.1-3.5,1.7 c-0.6,0.2-1.2,0.2-1.7,0.1c-0.6-0.1-1.1-0.3-1.6-0.7c-0.4-0.4-0.7-0.9-1-1.4c-0.2-0.4-2.8,0-4.2,0.4s-1.3,1.1-1.9,2.1 c-1.2,1.2-2.6,2.2-4.1,2.9c-1.4,0.8-3.5,3.4-5.4,4.6c-2.2,1-4.4,1.8-6.7,2.4l-0.9,0.6c-0.9,0.6-1.8,1.4-2.6,2.1 c-0.9,0.8-1.4,1.8-1.6,3c-0.1,1.3-0.3,2.6-0.6,3.8c-0.4,1.7-2.4,4.8-2.8,6.5s-1.4,2-2.1,2.7c-0.4,0.3-0.8,0.8-1,1.2 c-0.2,0.5-0.4,1-0.4,1.5c0,1,0.2,2.1,0.4,3.1c0,0,1.1,2.3,1.5,2.9c0.2,0.7,0.2,1.3,0,2c0,0.3,0.7,2.4,0.8,3s-0.8,1.3-0.9,1.5 c-0.3,1.7-0.5,3.4-0.5,5.1c0,0.7-0.3,1.3-0.6,1.9c0,0-4.3-0.4-4.6-0.4c-0.7-0.4-1.4-0.9-1.8-1.6c-0.4-1-0.7-2-0.8-3 c-0.1-0.3-0.2-0.5-0.4-0.8c-0.2-0.2-0.4-0.4-0.7-0.5c-0.2,0-1.7-1.1-1.7-1.8s1.6-1.8,1.7-2s-0.2-0.7-0.6-2.2s-1.1-0.6-1.5-0.9 s-2.1-0.6-2.6-1.2s-0.3-1.5-0.7-2.6s-0.9-0.6-1.4-1c-0.3-0.4-0.5-0.9-0.6-1.5c0.7-1.1,1.2-2.4,2-3.6s0.5-2.2,1-3.6s1-0.6,1.9-1.1 s1.8,0,2.1,0s1.1-2.1,1-3.6c-0.1-1.5-0.5-3-1.1-4.4c-0.5-0.9-2.3-0.6-3.9-0.3c-1.4,0.5-2.6,1.3-3.5,2.4c-0.4,0.4-2.4-3.2-2.8-3.9 s-2.4-2.5-3-3.8c-0.4-1-0.6-2.1-0.5-3.1c0-1.2-0.3-0.3-1.3,0c-1,0.1-2-0.3-2.6-1c-0.8-0.6,2.1-1.8,3.3-2.6s1.9-7.5,1.9-7.5v-4.2 c0-1.3,0.1-5.8,0-7.4c-0.4-1.8-1.1-3.5-2.1-5c-1.3-1.4-2.8-2.7-4.3-3.9c-1.3-1.3-1.8,0-2.8,0c-1-0.1-2.1-0.1-3.1,0l-1.3-2.8 c0.4-0.4,0.7-0.8,1-1.3c1.4-2.2,2.1-1.9,3-2.8c1.7-1.1,3.5-2.1,5.4-2.9c1.1-0.8,2.1-1.7,2.9-2.9c0.7-0.9,1.3-1.9,1.9-2.7 c1-1.4,1.9-2.8,2.8-4.3c1.1-1.8,0.6-2.3,1-3.4s2.1-2.5,3.4-4.3c1-1.3,1.8-2.8,2.4-4.3c0.5-1.4,0.5-3.7,1-5.6c1-2.3,2.2-4.6,3.7-6.7 c1.7-4,2.8-8.3,3.4-12.6c0.2-2.8,0.2-5.6,0-8.4l0.9,0.3l0.5,0.2l1.2,0.4L412,94l0.5,0.2l2.8,0.9c1.4,0.7,2.8,1.5,4.1,2.4 c0.3,0.2,1.8,2.8,2.2,3.2s1.2-0.3,1.6-0.9c0.8-0.8,1.9-1.3,3-1.4c0.8,0,4,4.8,5.2,6.2c1.6,2.6,3,5.4,4.1,8.3c0,0.4-0.1,1.8-0.2,2.3 s1.3,1.2,1.3,1.2l0.5-0.1c0.8-0.3,1.7-0.6,2.5-0.8c0.3,0,0.8,1.2,0.8,1.2c1.2-0.6,2.4-1.3,3.4-2.1c1-1,1.4-0.9,3-1.4s3,0.7,4.3,1.2 s6.6,3.4,6.6,3.4s3,1.1,3.3,1.1h2.2l1.7,0.2h3.2c1.6,0.4,3.1,1,4.5,1.8C472.7,121.1,473,121.4,473.4,121.6L473.4,121.6z"></path><path class="st2" d="M481.3,416.1c-1.2,0.5-5.4,1.1-6.2,1.5s0,1.2,0,2s-1,0.6-2.4,0.9c-1,0.3-1.8,0.8-2.5,1.5 c-0.6,0.4-0.3,1.7-0.2,2.1s1.8,1.1,1.8,1.1v1.3c0,0.5-1.1,0.8-2.2,1.4c-3.9,0.4-7.8,0.6-11.7,0.5c-1-0.1-1.9-0.1-2.9,0 c-0.9,0.2-2.1,2.1-2.6,2.2c-1.3,0.2-2.6,0.2-3.9,0.1c-1.2-0.1-1-0.5-1.3-1s-3.4-0.5-3.9-0.5c-0.9,0.2-1.8,0.7-2.4,1.4 c-0.2,0.2-0.4,0.4-0.7,0.6c-0.6,0.5-1.4,0.8-2.1,1.1c-1.1,0.2-2.2,0.4-3.3,0.5c-0.8,0-0.3-0.9-0.1-1.4s0.6-0.6,1.9-1.7 s-0.2-1.1-0.5-1.2h-0.4l1.4-1.8c0.5-0.6,0.9-1.3,1.3-2c0.4-0.7-1-1.1-1.8-1.2s-4,0-4.8-0.3c-0.7-0.3-1.3-0.8-1.8-1.4 c-0.1-1-0.1-2,0-3l7.1-1.8c0.4-0.1,0.9-0.2,1.3-0.4l0.5-0.2l1.6-0.6l1.5-0.5c0.1-0.1,0.2-0.1,0.4-0.1l2.4-0.9h0.2c0.1,0,0.2,0,0.4,0 c1.6-0.1,3.3,0.1,4.9,0.6c1.2,0.2,2.9,0.8,3.5,0.9s1.4-0.9,2.2-2.2s7.1-2.4,7.1-2.4c0.6-0.1,1.3-0.3,1.9-0.6 c0.5-0.3,0.7-0.9,0.2-2.3s0.3-2.4,0.7-3.2s0.8-2.4,1.1-3.2c0.4-1.1,0.9-2.1,1.5-3c1.2-2,1.9-1.5,2.4-3.2c0.4-0.8,1.2-1.5,2.1-1.8 c0.1,0.8-0.1,2.1,0.2,2.7c0.7,0.8,1.1,1.8,1.1,2.9c0,1.5,0,1.6,1,2.1c1.6,0.4,3.3,0.7,5,0.7h0.5l3.4,0.9h1.5 c-0.1,0.2-0.2,0.5-0.2,0.7c-0.8,2.8-1.7,4.2-1.5,5s1.5,2.8,2,4.5S482.5,415.6,481.3,416.1z"></path><path class="st2" d="M353.3,516.8c-0.4,0.4,0.1,1.5-0.4,2.8c-0.7,1.2-1.5,2.3-2.4,3.4c-0.4,0.6-1.4-0.4-0.4,0.6s1.9-0.2,2.3,0 s1.8-0.1,1.8-0.1s0.5,0.7,0.9,1.4c0,0.1,0.4,0.8,1,1.9c-0.4,0.5-0.8,1-1.2,1.5s-0.3,0.4-0.4,0.5c-0.7,0.9-1.3,1.9-1.9,3 c-2.1,4.1-10.4,19.1-11.5,21c-2.9,3.4-6.4,6.3-10.2,8.6c-2,1-3.9,2.2-5.8,3.5c-1.7,1.3-2.2,3.6-4,5c-1,0.7-2,1.4-2.9,2.2 c-1.3,1.7-2.2,3.7-2.7,5.9c-0.8,3.1-2.3,5.9-4.3,8.4c-0.8,0.9-2,1-2.9,1.8c-1.5,1.2-4.2,5.1-6.3,4.5s-1.7-3.4-1.9-5 c-0.3-1.5-0.1-3,0.6-4.3c0.6-1.5,1.9-1.4,2.4-2c1-0.8,2-1.7,2.9-2.6c0.8-1.1-0.8-2.6-1.4-3.3s-2.9-1-3.9-1.5c-0.5-0.3-1-0.8-1.3-1.3 c-0.3-0.6-0.5-1.2-0.5-1.8c0-1.1-1.5-2.4-2.8-3.7s-2.7-2.7-2.7-2.7c-2-0.5-3.9-1.7-5.3-3.2c-1.8-2.4-1.8-2-2.4-2.4 c-1.6-0.5-3.1-1.3-4.5-2.3c-1.4-1.3-1.6-0.7-3.8-1.7c-1.6-0.6-3.1-1.6-4.1-3c-1.2-1.4-2.6-2.8-4-4c-1.2-0.7-1.4,0.8-1.7,2.4 s-2.8,1.7-3.4,0.9s-0.9-2.5-1.7-3.8s-4-4.8-5.1-6.3c-1.7-1.7-3.7-3-5.9-3.8c-0.7-0.4-1.5-0.5-2.2-0.3c-0.8,0.2-1.4,0.6-1.9,1.3 c-1.6,1-3.5,1.4-5.4,1.2c-1-0.6-0.8-1,0-2.1s8-9.5,10.2-11.5s8.4-9.5,9.5-10.4s2.6-2.6,3.5-3.5s2.2,0,2.8-0.6s-1.5-0.4,0.8-2.5 c3-2.6,6.2-4.9,9.5-7.1c2.4-1.7,4.9-3.3,7.5-4.6c2.1-0.5,4.1-1.2,6-2.2c0.8-0.7,1.8-1.3,2.7-1.7l0.3-0.1h7.3c3.8-0.2,7.7,0,11.5,0.8 c3,1,6.8,3.2,8.2,3.7s6.4,1.4,6.4,1.4s1.5,0.2,1.8,1s9.8,7.9,10.9,9.5c1.6,1.8,3.8,3.1,6.2,3.5c1.5,0,6.3-0.6,6.7-0.6s3.9-1,2.8,1.4 C355.7,514.9,354.7,516.1,353.3,516.8L353.3,516.8z"></path><path class="st0" d="M576,193.9c-0.4,6-1.3,12-2.5,17.8c-0.2,0.4-1,1.9-2.1,3.6l-1.1-1.4c0,0-2.1-0.8-2.4-1 c-0.8-0.4-1.7-0.7-2.6-0.8c-0.7,0.2-1.4,0.5-2.1,1l-2.4,0.8c-0.8,0-1.6,0.1-2.4,0.2c-1,0.2-1.3,0.8-1.9,1.4s-1.5,1.5-2.1,2.2 c-0.7,0.6-1.4,1.1-2.2,1.4c-0.9,0.5-2.1,0-2.7,0.1c-1.1,0.3-2.1,0.8-3.1,1.3c-0.6,0.3-2.1,0-3,0c-0.5,0.1-1,0-1.4-0.3 c-0.6-0.4-1.2-0.9-1.6-1.5c-0.3-0.5-1.8-1.3-1.9-1.6c-0.9-0.3-1.8-0.4-2.7-0.3c-0.4,0.1-0.8-1.4-1-1.6c-0.8-0.6-1.5-1.2-2.4-1.8 c-0.3-0.1-1.2,1.3-1.6,1.8l-0.2,0.3l-0.2,0.4l-0.7,0.9c-0.6,0.2-1.1,0.4-1.7,0.5c-0.4,0.3-0.7,0.7-0.8,1.1c-0.3,0.7-2.1,1.6-2.1,1.6 c-0.3-0.4-0.5-0.8-0.5-1.3c-0.1-1.1-0.6-2.2-1.3-3.1c-0.9-0.7-2.1-1-3.2-0.8c-0.8-0.1-1.5-0.4-2.2-0.8c-0.8-0.4-1.6-1.6-1.8-1.8 s-1.4,0-3.3-0.2s-1.4-0.3-2-0.6s-1-1.4-1.8-2.8s-1.6,0.4-2.4,0.6c-1,0.6-2,1.3-2.8,2.2c-1,1-1.9,2-2.8,3.1c-0.7,1-1,0.8-1.4,1 c-0.6,0.4-1.2,0.6-1.9,0.7c-0.6,0-1.3,0-1.9,0c-0.8,0,0,0.5,0,1.6c0,0.9-0.4,1.8-1.1,2.4c-0.4,0.3-0.8,0.6-1.2,0.8 c0,0-3.2,2.1-3.7,2.3s-1.9-2-1.9-2.4c0.1-0.7,0.4-1.3,0.9-1.8c0.6-0.6,0.2-0.8,0-1.3c-0.9-1.5-1.9-2.9-3-4.1 c-1.2-1.2-1.9-0.8-3.4-2.2c-0.4-0.3-0.7-0.7-0.9-1.1l0.3-0.3c0,0,0.3-0.6,2.8-2.4c1.7-1,3.3-2.3,4.7-3.7c0.7-1,1.2-2.1,1.6-3.2 l0.2-0.4c0-1.5-0.3-3-0.8-4.4c-0.7-1.1-1.2-1.7-1.2-2.4c0.1-1.1,0.4-2.1,1-3c0.2-0.4,0.5-0.7,0.7-1.1c2,0.6,3.9,1.1,4.5,1.2 c1.2,0.2,2.3,0.3,3.5,0.4c1-0.2,2-0.5,2.8-1.1c0.6-0.6,4,0,4,0c1.1,0.6,2.1,1.3,3,2.1c0.8,0.9,1.5,1.9,2.1,2.9c0.8,1.2,2,2,3.4,2.3 c1,0.3,0.9-0.3,1.7-1.5c0.7-0.8,1.4-1.6,2.2-2.4c0.1,0.1,0.2,0.3,0.2,0.3c0,0.6,2,1.3,2.1,1.3c0.7-0.3,1.5-0.6,2.1-1 c1-0.5,1.4,1,1.6,1.3c0.5,0.8,1.3,1.3,2.2,1.6c1,0.3,5.2-2.4,6.3-3.1c1.1-0.8,2.1-1.8,2.8-3c0.8-1.3,1.6-1.3,2.8-2.4 s2.5,0.3,3.5,0.3s2,2.1,2,2.8c0,0.2-0.1,0.5-0.2,0.7c-0.1,0.2-0.3,0.4-0.5,0.5c-0.7,0.3-1.3,0.7-1.8,1.2c-0.5,0.6,0,1,0,1.5 s-0.7,0.8-1.3,1.3c-0.5,0.5-0.8,1.1-0.8,1.8c0.4,0.5,0.9,1,1.5,1.4c0.4,0.4,0.4,2.6,0.6,3c0.6,0.5,1.3,0.9,2.1,0.9 c0.8,0,1.3-0.7,1.9-1.1s1.6,0,2,0s1.8-1,1.8-2c0-1,0.4-1.9,1-2.6c0.5-0.6,1-1.1,1.6-1.6c0.7-0.6,1.1-0.5,2.5-0.1 c1.2,0.2,2.4,0.2,3.5,0c0.7,0.1,1.4-0.1,2.1-0.4c1-0.3,2-0.6,3.1-0.7c0.4,0,0.9-0.1,1.2-0.3c0.4-0.2,0.7-0.5,1-0.9 c0.3-0.6,0.4-1.2,0.4-1.8c0.8-0.7,1.7-1.2,2.7-1.6c0.3-0.1,0.7-0.2,1-0.2c0.3,0,0.7,0.1,1,0.2c0,0,3.3,1.8,3.5,1.8 S575,193.5,576,193.9z"></path><path class="st0" d="M106,229.1c-0.4,0.3-0.8,0.7-1.1,1.1c-0.8,1.2-1.5,2-1.9,2.6c-0.9,0.8-1.8,1.6-2.8,2.2 c-0.2,0.1-3.7,0.3-4.5,0.3s-1.4,1-2,1.8c-0.6,0.8-1.4,1.4-2.2,2c-0.6,0.6-1.2,0-1.8,0c-1.4,0.1-2.9,0.2-4.3,0.5 c-1.5,0.3-0.5,2.4-0.6,3.1c-2,2.5-4.8,4.3-8,5.1c-3.3,0.4-0.8-1.6-1.3-2.6s-2.5,0.6-2.9,0.6c-1.1-0.4-2.2-1-3.2-1.6 c-0.8-0.2-1.6-0.3-2.4-0.2c-0.3,0-3.3,1-4,0.6c-0.9-0.5-1.9-0.9-2.9-1.3c-0.6-0.1-1.2,0-1.7,0.3c-0.6,0.2-1,0.6-1.4,1.1 c-0.3,0.5-0.8,0.8-1.3,1c-0.5,0.2-1.1,0.3-1.7,0.1c-1.1,0-4.6-0.3-4.8-1.3c-0.3-3-0.5-6.1-0.5-9.1c0-1.9,0.3-3.8,0.8-5.6 c0.3-1.3-0.5-2-0.5-3.5s1-1.9,1-2.8s-0.6-1.6-1.2-1.6s-2.4,1.6-3.5,2.5c-1.7,1.3-3.3,2.7-4.8,4.3c-1.6,1.5-3.7,2.4-5.8,2.5 c-3,0.3-5.9,0.1-8.8-0.6c-1.4-0.8-1.6-5.7-2.4-7.1s-3.5-1-5.6-1.4s-6-0.2-6.6-1s1.8-2.5,2.6-4s0-2.4-1.1-4.1s-3.7-3.9-4.1-4.6 s-2.4-1.6-2.8-2.4s-1.3-2.8-1.8-3.9c-0.4-0.8-0.5-1.8-0.4-2.7c0.1-1-0.3-2-1-2.7c-1.2-1-2-2.3-2.4-3.8c0-0.5,0.1-1.1,0.4-1.6 c0.3-0.5,0.6-0.9,1.1-1.2c1.2-1.1,0.6-1.5,0.6-2.2c0,0,13.1,4.3,15,5.3c6.7,2.1,13.5,3.7,20.4,4.9c3.8,0.5,12.1,1.6,13.9,3.3 s8.9,4.8,12.5,8s22.5,11,26.8,13s10.7,4.3,10.7,4.3l2.6,1.3L106,229.1z"></path><path class="st0" d="M352.1,63.4c-0.3,1.6-1.5,2.7-1.3,4.3c-0.5,0.2-1,0.3-1.5,0.4c-1.2,0.3-2.4,0.7-3.5,1.2 c-1.1,0.4-2.5,2.9-2.9,3.7c-0.6,1-1.4,2-2.4,2.8c-0.9,0.6-2.1,0.8-3.2,1.4c-1.2,0.6-2.2,1.5-2.9,2.6c-0.5,1-1.6,4.7-1.6,4.7 s-2.4,1.9-3.1,2.6c-1.3,2-2.3,4.3-2.9,6.6c-1.2,3.9-4.1,1.6-4.1,1.6c-1.9-0.4-3.8-1-5.7-1.6c-1-0.5-1.1-3.6-1.2-4.2s-1-1.3-1.4-1.7 c-0.6-1.2-1-2.4-1-3.8c0-1.2-5.2-4.7-6-6.3s-1.2-2.4-0.9-3c0.2-1.8,0.2-3.6,0-5.4c0-1.2-1.1-2.1-1.9-3s-2.5-2.5-2.5-3 c-0.7-1.8-1.6-3.5-2.6-5.2c-1.1-0.7-2.2-1.2-3.5-1.5c-1.4-0.4-2.8-0.8-4.1-1.4c-0.9-0.5-3.6-3.9-4.9-4.5s-4.5,1.2-5.4,1 s-1.2-3.7-0.4-5c0.5-1.4,0.5-2.9,0-4.3l0,0c1,1,1.9,1.9,1.9,1.9c2,0.5,4.1,0.8,6.2,1c0.5-0.2,5.5-0.8,6.3-1.2c1.9-0.1,3.8,0,5.7,0.3 c0,0,3.5,1,4,1c2.4-0.6,4.7-1.6,6.8-3c2.2-2.3,3.8-5.1,4.7-8.2c1.9-4.9,4.7-9.4,8.1-13.4c1.4-1.8,2.4-4,2.8-6.2 c0-0.4,0.2-0.8,0.5-1.1c0.3-0.3,0.6-0.5,1-0.6l4.7,3.4l0.5,1.5c0.2,1,0.3,1.9,0.4,2.9V24c0,1,0.6,3.7,0.9,6.6c0.6,2.5,1.3,5,2.2,7.4 c0,0.9,1.3,2,1.6,3c0.2,1,0.6,1.9,1,2.8c0.8,0.2,1.6,0.2,2.4,0.1c0.8,0.2,1.6,0.5,2.4,1c0.5,0.4,0.6,2.2,1.2,4.3s1.2,1.1,1.4,1.2 c1.3,0.5,2.5,1.1,3.7,1.8c0.7,1.6,1,3.3,1.1,5C352.7,59.3,352.5,61.4,352.1,63.4L352.1,63.4z"></path><path class="st0" d="M221.6,59.2l-1,15.6H219l-3.4-0.4H215l-1.2-0.1h-4.2c-3,0-5.6,0.1-5.9,1.1c-0.7,2.3-1.5,4.5-2.5,6.6 c-1,1.6-3.4,5.6-2.9,6.2s1.6,0.8,1.8,1.5s-1.1,1.7-1.9,1.9c-0.9,0.4-1.8,0.6-2.7,0.8c-0.8-0.3-1.5-0.7-2.2-1.2c0,0-0.9-2.4-1.8-2.8 s-5.2-2.2-5.8-1.5s-3.8,2.1-4.1,3.6s0.4,2.4,0.6,3.5c0.1,0.4,0.1,0.8-0.1,1.2c-0.1,0.4-0.3,0.7-0.6,1c-0.2,0.2-0.4,0.5-0.5,0.8 c-0.1,0.3-0.1,0.7-0.1,1c0,0.9,0.3,1.7,0.9,2.4c0.8,1.3,1.4,1.8,1,2.2s-1.2,0-1.9-0.4s-1-2.4-2.4-2.4s-1.9,0.3-2.2-0.1 s-2.1-3.2-2.4-3.5c-0.8-1.3-1.9-2.4-3.2-3.2c-1.5-0.8-4.1-1.8-3.8-2.4c1.1-1,2.3-1.8,3.6-2.6c0.4-0.3,0.7-0.8,0.9-1.2 c0.2-0.5,0.4-1,0.4-1.5c0.2-0.7,0.2-1.5,0-2.2c-0.2-0.7-0.6-1.4-1.1-1.9c-1.7-2.2-2.8-4.8-3.2-7.5c0-1.3-0.7-2-0.7-2.9 s-0.7-2.4,0-3.6s2.2-3.1,1.8-3.8c-0.6-1.3-1.3-2.6-2.1-3.8c-0.5-0.2-4.4-3.4-4.4-3.4c0.1-1.2,0.4-2.5,0.8-3.6 c0.7-1.6,1.2-2.7,0.4-3.4c-1.1-0.8-2.2-1.5-3.5-2c-1.1-0.2-2.1-0.5-3.1-0.8c-0.8-0.4-1.6-0.8-2.4-1.1c0.2-1,0.3-2.2,0.4-2.5 s-0.9-1.3-1.1-1.4c-0.9,0-1.8,0.2-2.5,0.7c-0.4,0.4-2.6,0-4-0.2c-0.2,0-0.3,0-0.5,0h-0.4l-0.3-0.3V41c-0.2-0.8-0.2-1.6,0-2.4 c0.2-0.9,0.2-1.8,0-2.6c-0.2-0.9-1.5-1.9-2.4-2.7s-1-3.1-1-3.3v-2.1c0-0.5,0.7-0.7,1-1.4c0.3-0.5,0.3-1.2,0.2-1.8 c-1.2-1.2-2.6-2.3-4-3.3c-1.8-1.4-3.5-2.9-5.2-4.5c-1.8-1.8-0.8-2.8-0.8-2.8c1.3,0.9,2.7,1.7,4.1,2.4c1.4,0.4,2.8,0.6,4.2,0.6 c1.4,0,1.3,0.7,1.3,1c0.6,0.9,1.3,1.7,2.1,2.4c0.6-0.2,1.2-0.5,1.8-0.8c1.1,0.2,2.3,0.5,3.4,1c0.8,0.2,1.6,0.4,2.4,0.4 c0.4-0.1,2.2-1.4,2.7-1.6s1.4,0.8,1.6,1s2.7,2.5,2.9,3.1c0.2,0.5,0.5,1,0.9,1.4c0.4-0.2,0.8-0.4,1.1-0.7c0.3-0.4,0.7-0.6,1.1-0.8 c0.2,0,1,0.6,1.5,0.3s0.3-4,0.2-4.6s3.4-2.4,3.8-2.4c1.2,0.1,2.5,0.3,3.7,0.5c1.1,0.1,2.1,0,3.2-0.3c1.3-0.5,2.6-1,4-1.4 c1-0.4,1.8-1,2.4-1.9c0.4-0.7,3.1-1.4,3.6-1.7c1.5-0.3,2.9-0.5,4.4-0.6c1.3-0.2,0.6-1.3,0.8-1.9c1.4-1.3,2.9-2.5,4.6-3.5 c0.6-0.5,0.9-1.2,0.9-2c0-0.6-0.6-1.1-0.8-1.6c-0.1-0.3-0.1-0.6,0-0.8c0.1-0.3,0.2-0.5,0.4-0.7c0.9-0.2,1.7-0.4,2.6-0.6 c1.3-0.2,2.6-0.1,3.9,0.3c1,1.3,1.7,2.8,2.1,4.4c-0.5,1.2-1,2.4-1.7,3.5c-0.4,0.7-0.6,1.6-0.6,2.4c0,0,4.9,1,5.3,1.2 s0.3,0.8,0.3,1.5c0.1,1,0.3,1.9,0.6,2.8c0.2,0.7,2.8,2.6,2.7,3.6s-4,3.2-4,3.2s-0.4,2.2-0.4,2.4c0.2,0.9,0.3,1.7,0.2,2.6 c-0.2,0.9-1.5,2.2-1.8,3.5s-0.7,6.1-0.8,6.5c0,1.4,0.1,2.7,0.4,4.1c0.3,0.8,3,2.4,3.4,3.5c0.2,1.1,0.1,2.3-0.3,3.3 c0,0,1.3,2.7,1.5,3.2s2.6,2.5,3,3.2c1,1,2.2,2,3.4,2.8c1.1,0.6,2.3,1.1,3.5,1.5L221.6,59.2z"></path><path class="st1" d="M391.5,316.5v2c0,0.3-0.5,0.4-0.8,0.8s-0.4,2-0.4,2.4s0.8,1-0.1,1.3c-1.1,0.2-2.3,0.4-3.4,0.5 c-1.7,0-3.3-0.2-5-0.5c-2.4-0.3-4.4-0.3-5-0.4c-0.2-0.1-0.4-0.2-0.5-0.4c-0.1-0.2-0.2-0.4-0.3-0.6c-0.1-0.2-0.1-0.4,0-0.6 c0-0.2,0.1-0.4,0.2-0.6c0.4-0.5,0.8-0.9,1.3-1.3c0.3-0.2,1.1-0.7,1.1-0.9c-0.2-0.7-0.2-1.5,0.1-2.3c0.5-0.8,1.4-2,2.2-2h4.2 c0.7,0.2,1.4,0.4,2.1,0.6l2.6,0.1L391.5,316.5z"></path><path class="st0" d="M571.4,215.4c-1.8,3.1-4.1,6.9-4.5,7.6c-0.6,1.1-5.3,4.5-6.3,5.6s-6.2,7.5-8,10l-0.3,0.4 c-0.6-0.6-1.2-1.3-1.8-1.9c-0.4-0.6-2-2-2.4-2.5c-1.3-1-2.7-1.9-4.1-2.8c-1.9-0.9-3.8-2-5.5-3.2c-0.4-0.4-0.9-0.7-1.4-0.9l-0.7-0.3 l-1.2-0.6c-0.5-0.2-1.1-0.5-1.7-0.8l-0.7-0.4h-0.2l-0.7-0.5c-1.4-0.8-3.1-1.3-4.7-1.4c0-0.1,0-0.2,0-0.4c0-0.7-1.3-1.7-1.9-2.5 l-0.3-0.4c0,0,1.8-0.8,2.1-1.6c0.2-0.5,0.4-0.9,0.8-1.1c0.6-0.1,1.2-0.3,1.7-0.5l0.7-0.9l0.2-0.4l0.2-0.3c0.3-0.6,1.4-1.9,1.6-1.8 s2.1,1.6,2.4,1.8s0.6,1.7,1,1.6c0.9-0.1,1.8-0.1,2.7,0.3c0.2,0.3,1.7,1.1,2,1.6c0.4,0.6,1,1.1,1.6,1.5c0.4,0.3,0.9,0.4,1.4,0.3 c1,0,2.4,0.3,3,0c1-0.6,2-1,3.1-1.3c0.6,0,1.8,0.4,2.7-0.1c0.8-0.3,1.6-0.8,2.3-1.4c0.5-0.7,1.5-1.6,2.1-2.2s1-1.3,1.9-1.4 s2.1-0.2,2.4-0.2s2.4-0.8,2.4-0.8c0.6-0.5,1.3-0.8,2.1-1c0.9,0.1,1.8,0.4,2.6,0.8c0.3,0.2,2.4,1,2.4,1L571.4,215.4z"></path><path class="st2" d="M576,193.9c-0.8-0.3-1.6-0.7-2.4-0.9c-0.2,0-3.5-1.8-3.5-1.8c-0.6-0.3-1.4-0.3-2,0c-1,0.4-1.9,0.9-2.7,1.6 c0,0.6-0.1,1.3-0.4,1.8c-0.2,0.4-0.6,0.7-1,0.9c-0.4,0.2-0.8,0.3-1.2,0.3c-1,0.1-2.1,0.4-3.1,0.7c-0.7,0.3-1.4,0.4-2.1,0.4 c-1.2,0.2-2.3,0.2-3.5,0c-1.5-0.3-1.8-0.5-2.5,0.1c-0.6,0.5-1.2,1-1.6,1.6c-0.6,0.8-1,1.7-1,2.6c0,0.9-1.4,2-1.8,2s-1.5-0.4-2,0 s-1,1.1-1.8,1.1c-0.8,0-1.5-0.3-2.1-0.9c-0.2-0.4-0.2-2.6-0.6-2.9c-0.5-0.4-1-0.9-1.5-1.4c0-0.3,0.1-0.7,0.2-1 c0.1-0.3,0.3-0.6,0.6-0.8c0.6-0.5,1.3-0.7,1.3-1.3s-0.5-0.9,0-1.5c0.5-0.5,1.1-0.9,1.8-1.2c0.2-0.1,0.4-0.3,0.5-0.5 c0.1-0.2,0.2-0.4,0.2-0.7c0-0.6-1-2.7-2-2.8s-2.4-1.4-3.5-0.3s-2,1.1-2.8,2.4c-0.7,1.2-1.7,2.2-2.8,3c-1.1,0.8-5.3,3.4-6.3,3.1 c-0.9-0.3-1.7-0.9-2.2-1.6c-0.3-0.4-0.6-1.8-1.6-1.3c-0.7,0.4-1.4,0.7-2.1,0.9c-0.2,0-2.1-0.8-2.1-1.3c0-0.1-0.1-0.2-0.2-0.3 c0.1-0.1,0.1-0.1,0.2-0.2c0.8-0.9,1.4-2,1.9-3.1c0.5-1.1-1-3.5-1.6-4.8s-1.1-1.5-0.9-2.1s0.9-0.6,1.7-1.4s-0.4-1-0.5-1.9 c0.2-1,0.5-2,1-2.8c0.3-0.9,0.3-1.9,0-2.8c0,0,0-0.1,0-0.1c0.3,0.1,0.6,0.1,0.8,0c0.2-0.1,0.4-0.1,0.6,0c0.2,0.1,0.4,0.2,0.5,0.4 c0.8,0.8,1.6,1.5,2.4,2.4c0.8,0.3,1.7,0.5,2.6,0.6c1.1-0.3,2.1-0.7,3-1.4c1.4-0.9,0.7-0.7,1.3-1.7s0.9-1.3,1.6-1.7s1.9-0.3,2.6-0.7 c0.7-0.3,1.3-0.7,1.8-1.2c0.5-0.7,2-0.9,3.7-1.4s0.4,1.7,0.4,1.9s-0.4,1.5-0.4,2s-1.6,0.3-2.2,0.6s-0.2,0.9-1,1.9s-0.5,0.8-0.5,1.3 c0,0.7,0.1,1.5,0.3,2.2c0.3,0.2,0.8,1.8,1.2,2.1c0.1,0.1,0.3,0.1,0.4,0.1c0.2,0,0.3,0,0.4-0.1c0.7-0.3,1.5-0.5,2.2-0.8 c0.3,0,1.6,1.1,2.1,1s0.7-0.7,1.5-1.2s1,0.4,1.5,0.6s0.3,1.9,0.4,2.5s1.1,1,1.5,1s1.1-0.9,1.3-1.3s0.9-0.5,1.2-0.9 c0.1-0.1,0.1-0.2,0.1-0.2c0-0.1,0-0.2,0-0.3c0-0.1-0.1-0.2-0.1-0.2c0-0.1-0.1-0.1-0.2-0.2c-0.3-0.5-0.5-1.1-0.5-1.8 c0-0.4,0.6-0.6,0.8-0.9s0-0.7-0.6-1.5l-0.3-0.4l-0.2-0.2c-0.2-0.2-0.2-0.9,0-1.8s1.1-0.8,1.6-0.9s1.4,0.9,1.8,1.4 c0.2,0.3,0.5,0.5,0.9,0.6c0.6-0.1,1.3-0.1,1.9,0h1c0.7,0.4,1.4,0.7,2.1,1c1.2,0.1,2.3,0,3.5-0.2c0.3-0.3,1.6,0.1,1.8,0 s2.3,1.7,2.3,1.7l3.2-0.3c1-0.1,2-0.3,2.9-0.7c0.7,2.4,1.3,4.8,1.6,6.3c0.5,3,0.8,6.1,1,9.2c0,0.2,0.1,0.5,0.1,0.7L576,193.9z"></path><path class="st0" d="M552.2,239l-0.4,0.5l-0.2,0.2c-0.1,0.1-0.3,0.2-0.5,0.3h-0.3c-0.5,0-0.9-0.3-1.5,0c-0.9,0.6-1.8,1.2-2.6,2 l-1.5,1.4c-0.4,0.4-0.7,0.8-1,1.2c-0.8,1.1-1.5,2.2-2.1,3.4c-0.1,0.2-0.2,0.5-0.3,0.7l-0.2,0.4v0.1l-0.1,0.3 c-0.3,0.6-0.7,1.4-1.2,2.2c-0.2,0.4-0.4,0.8-0.6,1.2c-0.1,0.2-0.2,0.4-0.3,0.6l-0.6,1.1c-0.5-0.1-1.1-0.1-1.6-0.3 c-0.8-0.3-2.2,0.3-2.5,0c-1.2-0.2-2.4-0.2-3.6,0c-1-0.7-1.9-1.6-2.5-2.7c-0.9-1.7-0.6-1-0.8-1.9c-0.2-0.9-0.5-1.7-0.9-2.5 c-0.5-1-0.7-1-1.3-1.9c-0.6-1-0.9-2.2-1-3.4c0-1.2,1.4-0.5,2.5-0.9s1,0,1,0s1.3,0.8,1.5,0.9s2-0.4,2.1-1.3s-0.2-1.1-0.6-2.6 s0-1.3,0-1.3c0.5-0.7,0.9-1.5,1.2-2.4c0-0.6-0.3-1.2-0.8-1.6c-0.3-0.3-0.6-0.7-0.9-1.1l0,0c-0.5-0.7-1.1-1.4-1.7-2 c-0.6-0.9-1-1.9-1-3c-0.2-1-0.4-2-0.6-2.9c1.7,0.1,3.3,0.6,4.8,1.4l0.7,0.5h0.2l0.7,0.4c0.6,0.3,1.1,0.6,1.7,0.8l1.2,0.6l0.7,0.3 c0.5,0.3,1,0.6,1.4,0.9c1.8,1.2,3.6,2.3,5.5,3.2c1.4,0.9,2.8,1.8,4.1,2.8c0.3,0.5,1.9,2,2.4,2.5C551.2,237.7,551.7,238.3,552.2,239 L552.2,239z"></path><path class="st2" d="M505,359.5c-0.4,1.8-0.4,3.6,0,5.4c0.1,1.5,0,7.9,0,7.9s-0.5,3.9-0.7,4.5s-4.1,2.6-5,3.5s-1.7,3.1-2.8,4.8 s-2.6,5.5-3.7,7.1s-2.2,1.8-2.9,3c-0.3,0.5-0.6,1.1-0.7,1.6c-0.1,0.5-0.2,0.9-0.3,1.4c-1.3,1.1-2.3,2.5-3,4.1h-1.5L481,402h-0.5 c-1.7,0-3.4-0.3-5-0.7c-1.1-0.5-1-0.6-1-2.1c0-1.1-0.4-2.1-1.1-2.9c-0.3-0.6,0-1.9-0.2-2.7c0-0.1,0-0.1,0-0.2 c-0.4-1.4-0.7-2.9-0.9-4.4c0-0.9,1.9-1.1,3.4-1.8s2.1-0.1,3-1.1c0.9-1,1.9-1.9,2.9-2.8c0.5-0.4,0.4-2.9,1-3.9s1.9-3.2,3.4-5.5 s0-3.2-0.1-4.2s-2.9-2.5-4-3.1s2.4-0.3,3.3-1.4s0-1.6-0.1-2.5c-0.1-0.4-0.3-0.8-0.5-1.2c-0.3-0.4-0.6-0.6-1-0.8 c-0.8-0.4-0.8-2.4-0.8-3.4s2.3-1.5,3.3-1.9s1.1-0.1,2.2,0s0.6-0.2,0.8-0.7c0.7-0.9,1.4-1.8,2.3-2.5l5.3,0.7c0.1,0.1,0.2,0.3,0.3,0.3 c0.8,0.6,2.9,1.5,3.3,2.1c1.5,1.2,3.1,2.2,4.8,3l0.8,0.4C505.4,358.8,505.2,359.2,505,359.5z"></path><path class="st0" d="M414.8,235.5c-0.7,0.9-2.4,2.4-3.6,3.7s-4.4,4-5.3,5.1s-4.2,5.6-3.8,6.5s2.3,1.8,2.9,2.3s3.2,0.4,3.5,0.9 s1.8,2,0.8,2.4s-3.4,0.2-3.7,0.5s-0.2,1.7-0.2,1.7s3.9,0.8,3.3,2.2l-0.1,0.3c-0.2,0.2-0.4,0.4-0.6,0.5c-0.2,0.1-0.3,0.2-0.5,0.2 h-0.2l-0.7,0.2h-0.5c-0.3,0-0.4,0.1-0.5,0.3c0.3,1.8,0.8,3.6,1.6,5.2c0.3,0.2,1.3,0.4,1.5,0.8s0.8,0.9,0,1.7c-0.7,0.8-1,1.7-1,2.8 c0.1,0.6,0.5,1.1,1,1.4c0.4,0.2,0.9,1.3,0.5,1.6s-0.4,0.5-0.8,1c-1.3-0.3-2.6-0.4-3.9-0.5c-1.2,0-2.4,0.1-3.6,0.4 c-1.7,0.8-3.2,1.8-4.4,3.2c-1,1-3.1,0.6-4.2,0.6c-0.9,0-1.8-0.3-2.4-1c-0.8-0.5-1.7-0.7-2.7-0.5c-1,0,0.4,2,0,2.6s0.4,1,0,2 s-2-0.8-2-0.8s-6.2-2.3-6.9-2.3c-0.7,0.1-1.3,0.3-1.9,0.7c-0.7,0.1-1.4,0.1-2.1-0.1c-0.7-0.2-1.3-0.5-1.9-1c-1.5-1.4,0-1.8,0-2.5 s-1.4-2.1-2.1-2.4s-0.8,1-1.9,1.8s-0.9-0.3-2.1-1.8s-0.6,0.1-2.1,1s-1.2,2.9-1.5,4c0,0.1-0.1,0.3-0.1,0.4c-0.1,0.1-0.2,0.2-0.3,0.3 c-0.1,0.1-0.3,0.1-0.4,0.2c-0.1,0-0.3,0-0.4,0l-3-1.4c0,0-2.2-2.4-3.2-3.4s-3,0-3.5,0c-1.2-0.2-2.3-0.6-3.3-1.3 c-1.5-0.9-0.2-3,0-4.4c0.3-1.3,0.5-2.5,0.6-3.8c-0.1-0.5-1.3,1.5-2.2,3c-0.7,1.5-1.3,3.1-1.7,4.8c-0.6-0.3-1.3-0.6-2-0.7 c-0.8-0.1-0.4-3.2-0.4-3.2s-0.2-4.1-0.3-7.7c0-2.4-0.2-4.4-0.2-5.1c0-1.6-1.4-3.5-1.4-4.2s1.4-2.6,1.9-4.6s0-4.4,1.1-8.2 c0.8-3,3.2-9.3,4.2-11.8v-0.3c0.5-1.2,1.9-4.4,2.1-4.9s2-3.8,3-6.3s2.4-2.1,3.5-2.8s1.4-1.9,2.1-3.2s2.4-2.1,3.6-3.9 c1.4-2.7,2.1-5.7,2-8.7c-0.2-1.4-2.6-3.1-3-4c-0.5-0.9-0.7-2-0.8-3c0.9-1.6,1.5-3.3,1.9-5.1c0.2-2.4,0.9-1.2,1.4-2.4s2-1.9,2.9-2.8 s3-0.6,3.9-1.3c1.9-1.9,3.6-4,5.2-6.2c0.4-0.4,0.8-0.9,1-1.5c0.2-0.6,0.3-1.2,0.2-1.8c-0.1-0.8,0.1-1.6,0.5-2.3 c0.8-0.7,1.4-1.5,1.9-2.4c0.3-0.7-1-2.8-1.4-3c-0.9-0.9-1.8-1.6-2.8-2.4c-0.5-0.1-3.5-0.4-4.4-0.6s2.4-1.5,3-2.3 c1.1-0.9,2.1-1.8,3-2.8l1.3,2.8c1-0.1,2.1-0.1,3.1,0c1,0,1.5-1.3,2.8,0c1.5,1.2,2.9,2.5,4.3,3.9c1,1.5,1.8,3.2,2.1,5.1 c0.1,1.6,0,6.2,0,7.4v4.3c0,0-0.8,6.6-1.9,7.4s-4,2-3.3,2.6c0.7,0.7,1.7,1.1,2.6,1c1-0.3,1.3-1.1,1.3,0c-0.1,1.1,0.1,2.2,0.6,3.2 c0.6,1.3,2.6,3,3,3.8s2.4,4.3,2.8,3.9c1-1.1,2.2-1.9,3.5-2.4c1.6-0.4,3.4-0.6,3.9,0.3c0.6,1.4,1,2.9,1.1,4.4c0.1,1.5-0.6,3.6-1,3.6 s-1.3-0.5-2.1,0s-1.4-0.2-1.9,1.1s-0.3,2.2-1,3.6s-1.3,2.5-2,3.6c0,0.5,0.2,1.1,0.6,1.5c0.5,0.4,1,0,1.4,1s0,2,0.7,2.6 s2.2,0.9,2.6,1.2s1.1-0.6,1.5,0.9s0.7,2,0.6,2.2s-1.7,1.3-1.7,2s1.5,1.7,1.7,1.8c0.3,0.1,0.5,0.3,0.7,0.5c0.2,0.2,0.3,0.5,0.4,0.7 c0.1,1,0.4,2,0.8,3c0.4,0.7,1.1,1.3,1.8,1.6c0.3,0,4.6,0.4,4.6,0.4h2.5c0.3,0,0.2,0,0.3-0.2l0.1,0.2c0.2,0.1,0.3,0.3,0.3,0.5 C415,235.2,414.9,235.4,414.8,235.5L414.8,235.5z"></path><path class="st0" d="M207.2,264.4c0,1.7-0.5,3.4-1.4,4.8c-1.1,1.6-1,1-1.1,2.4c-0.6,1.9-1.5,3.7-2.7,5.3c-0.7,0.9-1.2,1.8-1.5,2.9 c0.1,1.2-0.2,2.4-0.8,3.4c-1.1,0.9-2.3,1.8-3.5,2.6c-0.6-0.4-1.3-0.7-2-1c-1.1-0.3-3.2-0.4-4-0.6c-2-0.5-4-0.8-6.1-0.8 c-2.4,0-1.9,0.5-3.2,0.8s-3.2-1.3-4-2.4c-0.9-1.1-2-2.1-3.1-3.1l-0.1-0.1c-0.2-0.1-0.4-0.2-0.7-0.3l-0.4-0.1H170 c-2.3-0.4-4.5-1.2-6.5-2.4c-2.6-1.8-2.8-2.8-3.1-3.6s-2-1.6-2-1.6c-0.5,0.4-1.1,0.6-1.7,0.8c-1.2,0.3-2.5,0-3.5-0.8 c-0.5-0.4-0.9-0.9-1.2-1.4c-1.3-0.7-2.7-1.1-4.2-1c-1,0.1-2.1,0.2-3.1,0.3c-1.6-0.1-3.1-0.6-4.4-1.3c-3.8-1.7-7.1-4.3-9.6-7.6 c-1.4-2.2-2.7-4.5-3.8-6.9c-0.3-0.9-0.5-1.9-0.4-2.9c0.1-1,0.4-2,0.8-2.8c0.1-0.9,0-1.8-0.2-2.6c0-0.1,0-0.2,0-0.3v-0.2 c0-0.1,0-0.2,0-0.3c0-0.1-0.1-0.2-0.1-0.3c-0.1-0.3-0.2-0.5-0.4-0.8c0-0.2-0.2-0.3-0.2-0.5c-0.3-0.6-0.6-1.2-0.8-1.9 c-0.5-1.8,0.9-2.9,1.3-3.6c0.2-0.3,0.4-0.7,0.4-1.1c0-0.4-0.1-0.8-0.4-1.1c-0.5-0.9,0-1.5,0-2.1s1.2-2.4,1.2-3.3s-1.6-2.1-2.2-2.3 s-1.5,1-2,1.2c-1.3,0-2.5-0.1-3.8-0.4c-2.5-0.1-5.1,0.1-7.6,0.4c-1.8,0.3-4.8,0.5-4.8,0.5c-0.5,0.3-1.1,0.6-1.5,0.9l-1.9-0.9 c0,0,4.1-1.8,4.6-3.2s0.6-3.5,1.9-3.9c2-0.3,4,0,5.8,0.6c0.4,0.5,1.9,2,2.7,2.1c1.5-0.3,3-0.7,4.3-1.3c0,0,1-1.3,1.6-1.1 s1.2-0.9,1.7,0s3.6,0.3,3.9,0c0.9-0.8,1.5-1.9,1.7-3.1c0.4-1.8-0.2-3.3,1.5-3.6c1.7,0.1,3.3,0.6,4.8,1.5c0,0,1.9,1,2.9,0.4 s1.4-1.1,1.5-1.9c0.2-1.4,0.5-2.7,1.1-3.9c0.8-0.5,1.7-1,2.6-1.4c0,0-0.6-2.6,0-3.4c0.9-0.9,1.7-1.7,2.7-2.5 c0.8-0.7,1.5-1.4,2.2-2.3c0.5-0.9,4.5-1.9,4.8-1.9s7.5,1.7,7.5,1.7c1.2,1.2,2.3,2.4,3.3,3.8c0.9,1.5,2.1,2.8,3.5,3.8 c0.6,0.1,1.2,0.3,1.8,0.7c0.5,0.4,0.9,0.9,1.2,1.5c0.6,1.6,5,2.9,5,2.9l2.8-1.7c0.6-0.1,1.2-0.1,1.7,0.1c0.1,0.1,0.2,0.2,0.3,0.3 c0.1,0.1,0.1,0.2,0.1,0.4v4.5l-2.4,2.4c0.3,0.9,0.6,1.8,1,2.6c0.6,1.2,0.8,2.5,0.5,3.8c-0.3,0.6-0.5,1.3-0.6,2.1 c0.2,0.6,0.6,1.1,1,1.6c0.3,0.5,0.6,0.9,0.4,1.2c-0.4,0.6-1.8,2-1.3,3.6c0.6,1.2,1.1,2.5,1.3,3.9c0,1.4,0.7,2,0,3.5s-1.1,3.5-0.3,4 c1.1,0.6,2.3,0.8,3.6,0.7h13.2c0,0-1.9,0.1,0,1.1c1.6,0.7,3.3,1.1,5.1,1.1c0.3,0.8,0.3,1.6,0,2.4c-0.3,1-0.8,2-1.4,2.9 c-0.4,0.6-0.7,1.3-0.6,2c0,1.1-0.1,0.4,1.7,3.5S207.2,263.1,207.2,264.4z"></path><path class="st0" d="M262.6,111.2c-1.3,0.8-2.5,1.7-3.6,2.6c-1.4,1.2-2.2,0.7-2.4,3.3s0.7,4.4-0.9,7.1s-9.1,17-10.7,21.4 s-10.6,22.5-12.1,26s-5.7,7.4-5.7,8.4c0.1,1.2,0.6,2.2,1.5,3c1.3,2.1,2.5,4.3,3.4,6.7c-0.4-0.1-0.8-0.2-1.2-0.2c-2.4,0,0.2,2,0,3.3 s-2.4,3-2.4,3.4c0.2,1.6,0.5,3.2,1.1,4.8c0.6,1.1-0.5,3.4-0.9,4.4c-0.5,1.1-0.7,2.2-0.6,3.4c0.1,1,0.1,1.9,0,2.9l-17.2,0.2 l-28.7,0.4c-0.5-0.2-1.1-0.2-1.7-0.1l-2.7,1.7c0,0-4.3-1.3-4.9-2.9c-0.2-0.6-0.6-1.1-1.1-1.5c-0.5-0.4-1.1-0.6-1.7-0.7 c-1.4-1.1-2.5-2.4-3.4-3.8c-1-1.3-2.1-2.6-3.2-3.8c0,0-7.1-1.7-7.4-1.7s-4.3,1-4.8,1.9c-0.6,0.8-1.3,1.6-2.1,2.3 c-0.9,0.8-1.8,1.6-2.6,2.5c-0.6,0.8,0,3.4,0,3.4c-0.9,0.4-1.8,0.8-2.6,1.4c-0.6,1.2-1,2.6-1.1,3.9c0,0.9-0.5,1.3-1.5,1.9 s-2.9-0.4-2.9-0.4c-1.4-0.9-3.1-1.4-4.8-1.5c-1.8,0.3-1.1,1.8-1.5,3.5c-0.2,1.2-0.8,2.3-1.6,3.1c-0.4,0.3-3.4,0.9-3.9,0 s-1,0.1-1.6,0s-1.6,1.1-1.6,1.1c-1.4,0.6-2.8,1-4.3,1.3c-0.7,0-2.2-1.6-2.6-2.1c-1.8-0.7-3.8-0.9-5.8-0.6c-1.3,0.4-1.4,2.5-1.9,3.9 s-4.6,3.2-4.6,3.2l-2.6-1.3c0,0-6.4-2.3-10.7-4.3s-23.3-9.8-26.8-13s-10.6-6.3-12.5-7.9s-10.2-2.8-14-3.3 c-6.9-1.2-13.7-2.8-20.4-4.9c-1.9-1-15-5.3-15-5.3v-3.2c0-1.8,3.3-4.5,4.8-5.3c1.8-0.8,3.5-1.8,5-3c0.4-0.7-2.4-4.2-2-5.7 c0.7-1.6,1.8-3,3.1-4.2c0.7-1.1,1-2.3,0.9-3.6c0.3-1.7,0.7-3.3,1.3-4.9c0.2-1.1,2.1-1.8,3-2.4s7.4-4.4,8.3-5s2.6-2.6,3.4-3.2 s2.5,0,3.8,0c1.8-0.4,3.5-0.9,5.2-1.5c1.4-0.3,5.6-0.6,5.7-1.2c0.6-1,1.5-1.9,2.5-2.4c1.2-0.5,2.5-0.7,3.8-0.7 c0.6,0.8,1.1,1.6,1.6,2.5c0.6,0.8,3.2,0.5,4.5,0s2.4-6.6,2.9-8.5s4-18.5,4.5-21.6s1.9-15.1,2.4-16.8s-0.6-2.9-1.9-4.2 s-0.2-2.9-0.2-4s-2.4-2.9-4.2-4.3c-1.2-0.8-2.2-1.9-2.9-3.2c-1-1.4-0.9-9.6-0.8-10.1s3.2-1.3,3.6-1.6c0.8-0.3,1.6-0.4,2.4-0.5 c0,0,3.1-0.6,3.3-0.6s2.4,0.6,3.5,1.1s0.5-4.6,0.5-4.6c-0.1-0.6-0.2-1.3-0.5-1.8c-1.1-0.7-2.3-1.2-3.5-1.5c-0.8-0.3-3.2,0-4.1-0.1 s-1.6-1.4-2.1-2.2c-0.4-1.5-0.5-3.2-0.3-4.8c0-1.6,3.1-3.2,3.5-3.2s3.7,0.4,4.4,0.3s16,0.4,16.1,0.4s1-0.5,0.9-0.8s-1.1-1.1-1.4-1.6 s0.3-0.7,0.8-1.1s1.9,1,2.4,1.4c0.6,0.3,1.4,0.3,2,0c0.4-0.4,0.7-0.9,1-1.4c0.3-0.4,2.1-0.5,2.4-0.5s1.2-1,1.5-1.8s1.7-1.3,2.2-1.5 s1,1,1,1c0.1,1.2,0.3,2.5,0.6,3.7c0.3,0.7,2.4,1,2.5,1.4c0.3,1.4,0.4,2.9,0.4,4.3c0.1,1.5,0.3,3,0.6,4.5c0.3,0.6,1.5,0.3,1.6,0.3 l3.1,0.4c0.7,0.1,2.6,2.6,3.2,3.4c0.6,0.8,2.7,2.4,3.2,3s4.4-0.1,5.1-0.9s2-2.5,2.4-2.8c0.7-0.3,1.5-0.5,2.2-0.6 c0.7,0.4,1.3,1,1.9,1.5c0.2,0.3,0.4,0.6,0.5,0.9c0,0-1.3,1.5-1.3,2.4s1.6,0.8,1.6,0.8s1.4-0.9,1.5-1.3c0.2-0.8,0.6-1.6,1.1-2.2 c0.5-0.5,1.7-0.3,2-0.7s0.3-1.3,0.6-1.6s1.4-1.2,2-1.7c0.7-0.6,1.5-1.1,2.4-1.5c0.5-0.2,1.7,0.5,2.1,0.5c1.1-0.9,2.1-1.8,3-2.9 c0.1-0.2,0.3-0.3,0.6-0.4c0.2-0.1,0.5,0,0.7,0c0,0,0.6,1,1,1s1-0.9,1.4-1.5s2.9-2.2,3.2-3.1c0.2-1.6,0.3-3.2,0.3-4.8 c0-0.4,2,0,2.7,0.3c1,0.2,2-0.1,2.7-0.8c1.1-0.7,2.3-1.3,3.5-1.7c0.3-0.1,0.5-0.7,0.6-1.3c0.8,0.3,1.6,0.7,2.4,1.2 c0,0,2.7,0.8,3.1,0.8c1.3,0.5,2.5,1.2,3.5,2c0.8,0.7,0.3,1.8-0.4,3.4c-0.4,1.2-0.7,2.4-0.8,3.6c0,0,3.9,3.1,4.4,3.3 c0.8,1.2,1.5,2.5,2.1,3.8c0.4,0.7-1.1,2.6-1.8,3.8s0,2.7,0,3.6s0.6,1.6,0.7,2.9c0.4,2.7,1.5,5.3,3.2,7.5c0.5,0.5,0.9,1.2,1.1,1.9 c0.2,0.7,0.2,1.5,0,2.2c0,0.5-0.1,1.1-0.4,1.5c-0.2,0.5-0.5,0.9-0.9,1.2c-1.3,0.7-2.5,1.5-3.6,2.5c-0.4,0.6,2.2,1.6,3.8,2.4 c1.3,0.8,2.4,1.9,3.2,3.2c0.2,0.2,1.9,3,2.4,3.4s0.9,0.1,2.2,0.1s1.6,2,2.4,2.4s1.5,0.8,1.9,0.4s-0.2-0.9-1-2.2 c-0.6-0.7-0.9-1.5-0.9-2.4c-0.1-0.6,0.2-1.3,0.6-1.8c0.3-0.3,0.5-0.6,0.6-1c0.1-0.4,0.1-0.8,0.1-1.2c-0.2-1.2-0.9-2-0.6-3.5 s3.5-2.9,4.1-3.6s4.8,1,5.8,1.5s1.8,2.8,1.8,2.8c0.7,0.5,1.4,0.9,2.2,1.2c0.9-0.2,1.8-0.4,2.7-0.8c0.7-0.3,2-1.3,1.9-1.9 s-1.2-0.9-1.8-1.5s1.8-4.5,2.9-6.1c1-2.1,1.9-4.3,2.5-6.6c0.3-1,2.9-1.2,5.9-1.1h4.2l1.2,0.1h0.5l3.4,0.4h1.7 c-0.4,2.4-0.4,4.8,0,7.1c0.8,1.8,2.5,2.2,3,3.7c0.3,2.1,0.9,4.2,2,6.1c0.7,1,1.5,1.9,2.5,2.7c1.3,1.2,2.2,1.9,2.2,1.9h4.8 c-0.4,0.9-0.4,1.9,0,2.8c0.7,1.3,0.8,1.5,3.9,3s5.5,2,6.4,2.5s2.7-0.8,3.9,1.8s1.9,3.5,2.4,3.7c0.5,0.5,1.2,0.9,1.9,1.2 c0.7,0.2,1.5,0.3,2.3,0.2c2-0.5,3.8-1.3,5.5-2.4L262.6,111.2z"></path><path class="st2" d="M490.1,191.2c-0.5,0.9-0.9,1.9-0.9,3c0,0.6,0.5,1.2,1.2,2.4c0.5,1.4,0.7,2.9,0.8,4.4l-0.2,0.4 c-0.4,1.1-0.9,2.2-1.6,3.2c-1.4,1.4-3,2.7-4.8,3.7c-2.5,1.8-2.8,2.4-2.8,2.4l-0.3,0.3c-1.5,1.3-3.2,2.3-4.9,3.3 c-2.2,1-2.4,2.4-2.4,2.4l-4.4,3.5c0,0-1.9,0.3-2.9,0.4c-1.2,0.2-2.4,0.6-3.5,1.3c-0.9,0.9-1.8,1.9-2.6,2.9c-0.8,1-1.9,0.5-3.4,0 s-1.1-1.7-1.3-2.2s-2.1-0.2-3.4,0c-0.6,0.2-1.3,0.2-1.9,0c-0.7,0-1-0.8-1-2.6s-1.4,0-1.7,0c-1.8,0.9-3.5,2.2-4.9,3.7 c-1.3,1.6,0.3,2.9,1.1,3.5c0.7,0.7,1.2,1.6,1.5,2.5c-0.6,2.1-1.4,4-2.6,5.8c-0.9,1.3-2,2.5-3.3,3.6c-1.1,0.7-2.3,1.1-3.6,1.4 c-0.6-0.2-1.2-0.5-1.7-0.9c-1,0.9-2,1.9-2.9,3c-0.8,0.9-1.8,1.6-2.9,2.2l-0.3,0.2c-1,0.5-2.4-0.3-2.7-0.4c-1.4,0-2.9-0.3-4.2-0.8 c-1.6-0.8-1.5-2-1.9-3c-0.2-0.9-0.2-1.9,0-2.8c0-0.8-0.7-0.9-0.7-2c-0.3-1.4-1.1-2.7-2.2-3.7c-0.5-0.3-1.5,1.1-2,1.7 c-0.1,0.1-0.3,0.2-0.3,0.2s-2.5,0-2.5,0c0.4-0.6,0.6-1.2,0.6-1.9c0.1-1.7,0.3-3.4,0.5-5.1c0-0.2,1-0.9,0.9-1.5s-0.9-2.7-0.9-2.9 c0.2-0.7,0.2-1.3,0-2c-0.3-0.6-1.5-2.9-1.5-2.9c-0.2-1-0.4-2-0.4-3.1c0-0.5,0.1-1.1,0.4-1.5c0.2-0.5,0.6-0.9,1-1.2 c0.7-0.7,1.8-1,2.1-2.7s2.4-4.8,2.8-6.5c0.3-1.3,0.5-2.5,0.6-3.8c0.2-1.2,0.8-2.2,1.6-3c0.8-0.7,1.7-1.4,2.6-2.1l0.9-0.6 c2.3-0.6,4.6-1.4,6.7-2.4c2-1.2,4.1-3.8,5.4-4.6c1.5-0.7,2.9-1.7,4.1-2.9c0.6-1,0.5-1.6,1.9-2.1s4-0.8,4.2-0.4 c0.3,0.5,0.6,0.9,1,1.4c0.5,0.4,1,0.6,1.6,0.7c0.6,0.1,1.2,0.1,1.7-0.1c1.6-0.6,2.6-1.6,3.5-1.7s2.4,0.7,3-0.3 c0.7-0.8,1.3-1.8,1.8-2.8c0.4-1,0.6-2,0.5-3c-0.2-0.6-0.6-1.6-1.4-1.7c-0.7-0.1-1.4-0.4-2-0.9c-0.4-0.3-1.6-0.4-1.6-1.4 s-0.3-6.5,0.4-7.6s2-1.7,2.7-2.4c0.6-0.5,1.1-1.2,1.2-2c0-1.3-0.3-2.5-0.8-3.7c-0.6-0.9-1.1-1.9-1.5-2.9c-0.2-0.5-0.2-1-0.2-1.5 c0.1-0.5,0.2-1,0.5-1.4c0.5-0.6,0.9-1.2,1-2c0-0.6-1.1-1.6-1.4-2.6c-0.1-0.4-0.2-0.9-0.3-1.3c0,0,1.7-2,2.6-3.2 c0.9-1,1.5-2.2,1.8-3.5c0-1-1.2-1.3,0-2.9c0.8-1,1.6-2,2.6-2.9c1.5-0.2,2.9-0.7,4.2-1.4c1.2-0.8,2.3-1.6,3.5-2.6 c0.8-0.8,2.6-2.2,3-3.8c0.1-0.6,0.2-1.1,0.4-1.6l0.3,0.1l0.4,0.1h0.5l1.9,0.4l0.8,0.2h0.2l0.9,0.1l0.7,0.1c0.4,0,0.8,0,1.2,0h0.9 c0,0.7-0.2,1.4-0.4,2c-0.5,2.5-0.7,5-0.8,7.6c0.1,1.5,0.5,3.1,1.2,4.4c0.5,1.1,1.8,2.8,2.6,4.4s-0.8,3.6-1.5,5.1 c-0.6,1.5-0.8,3.1-0.8,4.8c0,0.4,0.2,2.9,1.1,3.9c1.4,1.2,2.6,2.6,3.7,4c0.6,1.1,0,3.4-0.4,4.9c-0.2,1.6,0,3.2,0.5,4.8 c0.7,0.9,1,2.1,1.1,3.2c0.2,2.3,0.7,4.5,1.6,6.6c1,2.8,3,1.5,4,2.8s-0.7,6-0.9,6.6c-0.4,0.7-0.8,1.4-1.4,2.1 C490.5,190.3,490.3,190.8,490.1,191.2z"></path><path class="st2" d="M409.9,280c-0.7,0-2.6,0.8-2.9-0.8s1.1-1.9,1.5-2.4c-1.3-0.3-2.6-0.4-3.9-0.5c-1.2,0-2.4,0.1-3.6,0.4 c-1.7,0.8-3.2,1.8-4.4,3.2c-1,1-3.1,0.6-4.3,0.6c-0.9,0-1.8-0.3-2.4-1c-0.8-0.5-1.8-0.7-2.7-0.5c-1,0,0.4,2,0,2.6s0.4,1,0,2 s-2-0.8-2-0.8s-6.2-2.3-6.9-2.3c-0.7,0.1-1.3,0.3-1.9,0.6c-0.7,0.2-1.4,0.2-2.1,0c-0.7-0.2-1.4-0.5-1.9-1c-1.5-1.4,0-1.8,0-2.5 s-1.4-2.1-2.1-2.4s-0.8,1-1.9,1.8s-0.9-0.3-2.1-1.8s-0.6,0.1-2.1,1s-1.3,2.9-1.5,4c0,0.1-0.1,0.3-0.1,0.4c-0.1,0.1-0.2,0.2-0.3,0.3 c-0.1,0.1-0.3,0.1-0.4,0.2c-0.1,0-0.3,0-0.4,0l-3-1.4l-3.2-3.4c-1-1-3,0-3.5,0c-1.2-0.2-2.3-0.6-3.3-1.3c-1.5-0.9-0.3-3,0-4.4 c0.3-1.3,0.5-2.5,0.6-3.8c-0.1-0.5-1.2,1.5-2.1,3c-0.7,1.5-1.3,3.1-1.8,4.8l-1.4,3.4c-0.4,1.2-0.7,2.5-0.9,3.8 c-0.1,1.2-0.5,2.2-1.2,3.2c-1,1.6-2.1,0.6-2.1,4.2s0.8,4,0,5.7s-2.4,2.1-2.9,4.8s0,4.2-0.4,5.5s-5.3,2.3-6.6,4.4 c-1.1,2.3-2.1,4.6-2.9,7c-1.3,2.5-2,4.1-3.5,4.8s-3.9,0.4-5.3,1.3s-1.5,2.6-3.5,3.5s-3,0.8-3,2s0.6,1.4,0.6,2.8 c0.3,1.9-0.5,3.7-2.1,4.8l-0.4,0.3c-0.2,0.1-0.3,0.3-0.5,0.5c-0.2,0.2-0.3,0.4-0.5,0.6l-0.5,0.6l-0.2,0.3c-0.1,0.1-0.1,0.2-0.2,0.3 l-0.4,0.7l-0.4,0.7c-0.1,0.2-0.3,0.5-0.4,0.7l0,0c0,0.2-0.2,0.4-0.2,0.5l-0.5,1.1c0,0.1,0,0.2,0,0.3l-0.2,0.6v0.4c0,0.1,0,0.2,0,0.4 c0,0.1,0,0.2,0,0.3v0.1c0,0.1,0,0.1,0,0.2c0,0,0,0.1,0,0.1c0,1.6,0,3.2,0.1,4.3s1.4,2.8,1.4,3.7s0.8,2-0.5,2 c-0.6,0.4-0.8,1.2-0.5,1.9c0.1,0.2,0.3,0.4,0.5,0.5c1.5,0.8,3.2,1.3,4.9,1.4c-0.2,1-0.6,2-1.1,2.9c-0.5,0.4-1.8,1.3-0.8,1.9 s0.9,1.8,2.6,1s-0.1-1.1,2.4-0.9s2.9,0,3.8,1.1c1.4,1.4,2.9,2.6,4.5,3.7c2.1,1.1,4.4,1.7,6.8,1.9c1.4,0.3,2.7,0.9,3.9,1.8 c0.4,0.9,1.2,1.6,2.1,1.9c1.5,0.7,2,2.4,3.1,3.6c0.3-0.2,0.5-0.5,0.7-0.8c0.4-0.9,0-1.9,0.4-2.9s2.8-1.8,3.6-2.6l0.2-0.2v-0.1 l0.1-0.2l0.1-0.2c0.1-0.2,0.2-0.3,0.2-0.5V369c0.1-0.5,0.3-1,0.4-1.4c0.5-1.3,1.2-2.5,2.1-3.6c0.8-0.7,3.2-0.7,4.8-1.1 s4.1-1.1,4.5-1.1s2.4-0.9,3-0.9c1.1,0.4,2.2,0.7,3.4,0.9c1.5,0,1.5-0.1,1.9-0.6c0.8-0.7,1.8-1.3,2.8-1.8c0.7-0.4,1.5-0.7,2.4-0.8 c1.2-0.2,2.4-0.2,3.6,0c0.9,0.2,1.9,0.1,2.8-0.3c1-0.3,2.1-0.2,3,0.3c0.6,0.2,2.5,1,3.5,1.5s3.6-1.3,4.1-1.5 c1.2-0.7,2.3-1.5,3.4-2.4c0.9-0.6,1.7-1.3,2.4-2.1c0.5-0.7-0.2-1.4-0.3-1.9s-0.6-2-0.7-2.7s0.7-1.5,0.9-1.8c0.2-0.8-0.1-1.5-0.6-2.1 c-0.5-0.3-1.2-0.1-2.1-1s0.3-1.8,0.7-2.8s2.1-2.1,2.6-2.8c0.7-0.6,1.5-1.1,2.4-1.5c0.6-0.4-0.2-1.9-0.8-3c-0.7-1.1-1.5-2.2-2.4-3.2 c-1.1-1.2-0.8-1.7-1.1-2.5s0.4-0.5,1.1-1.6s0-1.1,0-2.5c0-0.9,0.2-1.9,0.6-2.7c0.2-0.5,1.6-0.4,1.9-0.4s1.6-0.3,3.1-0.6 c0.9-0.1,1.7-0.6,2.4-1.2c0.7-0.5,0-1.4,0-1.6c-0.5-0.6-0.9-1.3-1.3-2c-0.4-0.7-0.8-1.4-1.1-2.1c0-0.5,1.4-1.6,1.5-2.1 s-1-1.6-1.5-2.4s0.9-1.9,1.5-2.1c0.4-0.1,0.9-0.1,1.3,0c0.3,0,1.5,0.5,2.4,0.6c0.2,0.1,0.5,0.1,0.8,0.1c0.3-0.1,0.5-0.2,0.6-0.4 c0.5-0.3,0-1-0.5-1.7c-0.3-0.6-0.6-1.2-0.9-1.8c-0.2-0.5,1.1-2.4,1.1-2.4s1.9,1.4,2.2,1.7c0.6,0.7,1.3,1.4,2,2.1c1,1,1.2,0,2,0 c0.8,0,1.6,0.1,2.4,0.3c0.2-0.5-0.8-1.1-0.8-1.4V300c0-1.4,0.7-1.1,1.2-1.4s0-1.2-0.3-1.4s-1.8-1.3-3.2-2.3s-0.5-3.1-0.3-3.8 c0.2-1.1,0.3-2.2,0.3-3.4c0-1-0.5-1.3-0.5-2.6s0.3-1,1.2-2s2.9-1.4,3.5-2.4S410.6,280,409.9,280z"></path><path class="st2" d="M438.6,424.3c-0.4,0.7-0.8,1.4-1.3,2l-1.4,1.8c-1.7,0.3-3.3,1-4.8,1.8c-1.5,1,0,2.2,0,2.7s-0.9,1.3-0.9,1.3 c-1.1,0-2.2,0.2-3.2,0.6c-1.3,0.7-2.5,1.5-3.7,2.4c-0.2,0.3-2.2,1.2-2.5,1.6s0.2,1.1,0.4,1.4s2.6,1,3,1.3s-3.1,3.2-4.3,3 s-6.8-3.3-7.6-3.4c-0.4,0-0.8,0-1.1,0.1c-0.4,0.1-0.7,0.3-1,0.6c-0.8,1.1-1.6,2.1-2.6,3c-0.8,0.4-3.6,0-4.4,0.2 c-1.7,0.8-3.2,2-4.5,3.4c-0.8,1.1-1,1.8-1.3,2s-1.4,0.3-2.4,1s-10.3,6.3-10.3,6.3c-0.7,1.5-1.2,3-1.5,4.5c-0.3,1-1,1.9-1.8,2.6 c-0.2-0.6-0.6-1.2-1.2-1.6c-0.9-0.5-1-4.5-1.7-4.5H375c0,0-1.4,3.1-1.4,1.9V455c-0.2-0.3-0.5-0.5-0.8-0.7c-0.3-0.2-0.7-0.2-1-0.2 c-1.6-0.1-3.2-0.1-4.8,0c-1.5,0.1-3,0-4.5-0.1c-0.1-0.6-0.1-1.3,0-1.9c0.3-0.8,0.5-1.6,0.5-2.4c0-0.8,0.4-1.8-0.6-2.6 c-1.2-1.2-2.2-2.5-3.1-3.9c-0.6-1.2-1.1-2.4-1.3-3.8c0-0.9,0.8-3.3,0-4.8c-1-2.1-2.3-4.1-3.8-5.9c-0.7-0.4-3.6-1.7-4.8-1.1 c-1.5,0.6-3,1.1-4.6,1.4l-5.2-1.4c0,0-1.2-1.9-1.7-1.9s-9.1-1.4-9.1-1.4l-4-1.3c-1-0.3-2.1-0.5-3.1-0.6c-0.7,0-1.3,0.3-1.9,0.6 c-1.2,0.3-2.5,0.6-3.8,0.6c-1.6,0-5.7-0.4-5.7-0.4l-4.7-0.5l0.7-0.1c1.5-1.3,3.4-2.9,5-4.2l0.5-0.4l0.8-0.7l0.5-0.4l1-0.9 c0.6-0.6,2.9-1.8,4.8-3.1s2.4-1.3,2-2.1c-0.2-0.9,0-1.9,0.6-2.6c0.8-0.5,1.5-0.8,2.4-1.1c0-1.1-0.2-2.2-0.5-3.3 c-0.4-0.6,0.4-1.4,2.4-4s2.1-0.4,3.2-1s0-1.8,0-3.1c-0.3-1.9,0-3.9,0.9-5.7c1.3-1.6,4.9-1.8,5.3-1.8s1.8-3.2,1.8-3.2l0.2-0.1 l0.2-0.2l0.3-0.2l0.5-0.5l0.3-0.2l0.4-0.3l0.7-0.6l0.6-0.4l0.6-0.5l0.2-0.1l0.7-0.5c0.8-0.4,1.8-1.3,2.1-1.3s2.4,0.3,2.8,0.9 c1,0.9,2.2,1.5,3.6,1.7c1.2,0.1,2.4,0.1,3.6,0c1.3-0.4,2.7-0.7,4.1-0.9c1.1,0.1,2.3,0.2,3.4,0.4c0,0,0.5-0.3,0.6,0.8s0.4,2.4,0.5,3 s0.2,2.2,0.6,2.1c0.8-0.4,1.5-0.8,2.2-1.3c0,0,1.4-1,1.5-0.2s0.3,2.4,0.6,2.1l1.5-1.5l0.7-1.3l0.8-0.2c0.7,0.4,1.6,0.5,2.4,0.3 c1.6-0.2,3.3-0.4,4.9-0.4c0.2,0,0.6-0.7,1.1-0.7c0.8,0.1,1.6,0.2,2.4,0.5c0.3,0.1,0.6,0.1,0.8,0c0.3-0.1,0.6-0.2,0.8-0.3 c0.4-0.2,0.2-0.5,1.5-1.1c0.9-0.5,2-0.8,3-1c0.5,0.2,0.9,0.5,1.4,0.8c0.6-0.1,1.3-0.1,1.8,0.2c1.1,0.8,2,1.9,2.6,3.1 c0,0.4-1.5,2.4-1.6,2.8s1.5,1.5,1.9,1.7c0.7,0.4,1.1,1.3,0.9,2.1c-0.1,0.7-0.3,1.5-0.7,2.1c-0.2,1.9,0.1,3.8,1,5.5 c0.4,1.1,0.9,2.3,1.5,3.3c0.5,0.1,1.1,0.1,1.6,0c0.5,0-0.4-0.5,2.4-0.5s4,1.5,4,1.8c-0.1,0.9-0.4,1.8-1,2.5 c-0.8,0.6-1.4,1.4-1.9,2.2c-0.1,0.8-0.1,1.6,0,2.4c0.1,0.9,0.1,1.8,0,2.7c-0.2,0.5-0.3,0,0,1.6c0.2,1.2,0.7,2.3,1.5,3.3 c0.3,0.2,1.7,0.8,1.8,1.8c0.1,1.4,0.6,2.7,1.4,3.9c0.6,0.4,1.3,0.7,2.1,0.8c1.9,0.4,3.9,0.7,5.9,0.7c0.4-0.5,0.7-1.1,0.9-1.7 c0.5-1.3,0.7-2.2,1.6-2.5c0.7-0.4,1.4-0.5,2.2-0.4c1,0.1,2.1,0.2,3.1,0.1c1,0,1.9-0.3,2.7-0.8c0.7-0.7,1.5-1.3,2.4-1.9l2-0.5 l1.8-1.6c-0.1,1-0.1,2,0,3c0.5,0.6,1.1,1.1,1.8,1.4c0.7,0.2,3.9,0.2,4.8,0.3S439,423.5,438.6,424.3z"></path><path class="st2" d="M381.2,464.8c-1.8,1.6-3.7,3.1-5.8,4.4c-1.4,1.3-2.5,2.9-3.1,4.8c-0.1,0.4,0,0.8,0.2,1.2c-3-0.7-6.2-0.7-9.3,0 c-1,0.5-2.9,2.1-4,2.9s-1.8,0-2.4-0.1s-1.1-0.7-1.9-1.9c-0.9-0.9-2-1.4-3.3-1.5c-0.4,0-2.1,0.5-3.9,0.9s-1.9,0.6-1.9,0.6 c-0.6-0.2-1.2-0.5-1.9-0.6c-0.6-0.1-2.8,1.6-3.1,2c-0.5,0.3-1,0.6-1.5,0.9H336c-2.3,0-2,3.3-2,4.5v2.8c0,0.8-1.8,0.5-2.9,0.6 s-4.1-2.4-5.4-2.7c-0.9-0.2-1.8-0.2-2.7,0c-0.5-0.3-1-0.7-1.5-1.1c-1-0.9-3-0.5-4.1-0.6s-2.5,0.1-2.9,0c-1.3-0.6-2.4-1.4-3.3-2.4 c-0.8-1.1-2.6,0.3-3.4,0s-1.4,1.1-1.4,1.1s-2.1-0.4-2.5-1.4s-1.8-0.8-2.4-0.8c-1.1,0.2-2.1,0.6-3.1,1c-0.2-1.6-0.7-3.1-1.6-4.5 c0,0-1.8-4.9-2.1-6s-1-1.1-1.6-1.4c-1.4-0.3-2.9-0.5-4.3-0.4c-1.1,0-1.5,0.5-3.2,0.8s-1.3-0.8-1.2-1c0.4-1,0.9-1.9,1.4-2.8 c0.6-1.5,1-3,1.1-4.6c0.1-2.1,0.7-4.2,1.8-6c0.4-0.8,0.6-1.8,0.6-2.7c0-0.9-0.2-1.9-0.6-2.7c-0.2-0.9-0.4-2.4-0.7-3 c1.1-0.1,2.1-0.4,3-0.9c1.5-0.9,1.1-1.3,1.5-2.5s0.3-2.3,0.6-3.9s1.7-1.4,2.8-2.1s0.6-1.5,0.6-2c0.2-1.5,0.7-2.9,1.5-4.2 c1.7-1.6,3.6-3.1,5.6-4.4l0.5-0.3l0.3-0.2c0.1-0.1,0.3-0.2,0.4-0.3l0,0l0.6-0.5l0.3-0.3l4.8,0.5c0,0,4,0.4,5.6,0.4 c1.3-0.1,2.6-0.3,3.8-0.6c0.6-0.4,1.2-0.6,1.9-0.6c1.1,0.1,2.1,0.3,3.1,0.6l4,1.3c0,0,8.5,1.4,9.1,1.4s1.7,1.9,1.7,1.9l5.2,1.4 c1.6-0.3,3.1-0.8,4.6-1.4c1-0.6,3.9,0.7,4.8,1.1c1.5,1.8,2.7,3.8,3.8,5.9c0.8,1.4,0,3.8,0,4.8c0.2,1.3,0.6,2.6,1.3,3.8 c0.9,1.4,1.9,2.7,3.1,3.9c1,0.9,0.6,1.9,0.6,2.6c-0.1,0.8-0.2,1.6-0.5,2.4c-0.1,0.6-0.1,1.3,0,1.9c1.5,0.2,3,0.2,4.5,0.1 c1.6-0.1,3.2-0.1,4.8,0c0.3,0,0.7,0.1,1,0.2c0.3,0.1,0.6,0.4,0.8,0.7v5.3c0,1.2,1.4-1.9,1.4-1.9h3.3c0.7,0,0.9,4,1.7,4.5 C380.5,463.8,380.9,464.3,381.2,464.8L381.2,464.8z"></path><path class="st2" d="M538.8,254.5l-0.5,0.8L538,256c-0.6,1-1,1.9-1.3,2.4c-1.1,2.1-5.9,6.7-7,8.4c-1.3,2.4-2.4,4.9-3.5,7.5 c-0.9,1.4-2.2,2.4-3.8,2.9c-1.6,0.6-1.2-1.2-1.6-1.6s-3.1,2.6-4.3,3.9s-0.2,2.9,0,3.8c0,1.2-0.4,2.3-1.1,3.2c-0.7,1.2,0.1,1.7,0.5,3 c0.2,1.5,0.2,3,0,4.5v3.9c-0.9,1.2-1.6,2.5-2.1,3.9c0,1.8,0.3,3.5,1.1,5.1c0.4,2.2,0.6,4.4,0.7,6.6c0.3,2.4,0.4,4.8,0.3,7.1 c-0.4,1.7-1,3.4-1.6,5.1c-0.9,2.4-1.3,5.9-2.1,9.1c-0.5,2.8-0.7,5.6-0.4,8.4c0,0.3,0.9,4.8,1,5.6s-1.2,2.9-1.2,2.9s-2.1,1.8-3.3,2.6 c-0.2,0.2-0.5,0.4-0.7,0.7c-0.9,1.1-1.6,2.3-2.2,3.6l-0.8-0.4c-1.7-0.8-3.3-1.8-4.8-3c-0.4-0.6-2.4-1.5-3.3-2.1 c-0.1-0.1-0.2-0.2-0.3-0.3c-0.3-0.6,0.2-1.7,0.2-2.2c-0.8-1.6-1.8-3.1-3-4.5c-0.8-0.9-1.5-1.5-2.1-2.4c-0.5-0.8-0.7-1.8-0.5-2.7 c0-0.9,0-1.8,0.2-2.7c0.2-0.6,1.2-1.3,2.4-1.6c1-0.2,1.8-1,2-2c0.4-1.2-1.8-1.7-1.3-2.4c0.7-1.2,1.6-2.3,2.5-3.3 c0.7-0.7,3.6-1.6,4.2-2.1s0.7-1.9,0-3.4s-1.8-1.9-2.9-2.7c-1.2-0.6-2.5-0.9-3.8-0.8c-0.7,0-2.2-0.8-2.4-1.5s-0.7-0.5-2.7-1.3 c-1.1-0.4-2.3-0.6-3.4-0.4c-1.5,0-1.2,0.6-1.4,1s-1.5,0.7-1.5,0.7s-2.8-0.4-3-0.9c-0.2-0.7-0.3-1.5-0.4-2.3l-3.4-6.1 c0,0-1.5-0.9-2-1.1s-1,0.2-1.5,0.7c-1.4,0.5-2.8,0.7-4.2,0.8c-1-0.2-1.9-0.5-2.8-0.9c-1.5-1-3.1-1.9-4.8-2.8 c-1.3-0.4-2.5-1.3-3.3-2.4c-1.2-1.3-2.8-2.1-4.5-2.5c-2.6-0.7-2.4,0.6-3.4,1.1s-1.3,1.9-1.9,2.4s-1.7,0-2.8-0.3 c-0.5-0.2-1-0.5-1.5-0.9c-0.4-0.4-0.7-0.9-0.9-1.5c-0.5-1.2,0.3-2.2,0.9-3.1c0.3-0.5,0.5-1.2,0.4-1.8c-0.6-0.7-1.3-1.3-2.1-1.9 c-2.4-0.2-4.8-0.1-7.1,0.4c-2,1.1-3.8,2.4-5.4,3.9l-2,1.2l-0.6,0.3c-1.6,0.4-3.1,0.9-4.6,1.6c-1.2,0.7-2.2,1.6-3.2,2.5 c-0.6,0.6-4.6,4-4.9,4.5c-1.2,0.6-2.6,0.9-3.9,1c-0.6,0,0.2-1.4,0.6-2.7s0.9-1.1,1.1-1.6s-0.8-1.1-0.8-1.4v-4.9 c0-1.3,0.7-1.1,1.2-1.4s0-1.2-0.3-1.4s-1.8-1.3-3.2-2.3s-0.5-3.1-0.4-3.8c0.3-1.1,0.4-2.2,0.4-3.4c0-1-0.5-1.3-0.5-2.6s0.3-1,1.3-2 s2.9-1.4,3.4-2.4s-2.2-0.8-2.9-0.8s-2.6,0.8-2.9-0.8s1.1-1.9,1.5-2.4s0.5-0.7,0.8-1s-0.2-1.4-0.5-1.6c-0.3-0.1-0.5-0.3-0.7-0.5 c-0.2-0.2-0.3-0.5-0.3-0.8c0-1,0.4-2,1-2.8c0.8-0.8,0.2-1.3,0-1.7s-1.2-0.6-1.5-0.8c-0.8-1.6-1.3-3.4-1.6-5.2c0-0.1,0.2-0.2,0.5-0.3 h0.5l0.7-0.2h0.2c0.2-0.1,0.3-0.1,0.5-0.2c0.2-0.1,0.4-0.3,0.6-0.5l0.1-0.3c0.6-1.4-3.3-2.2-3.3-2.2c0-0.6,0-1.1,0.2-1.7 c0.2-0.2,2.8-0.3,3.7-0.5s-0.5-1.8-0.8-2.4s-2.9-0.5-3.5-0.9s-2.5-1.4-2.9-2.3s2.9-5.4,3.8-6.5s4-3.8,5.3-5.1s2.9-2.9,3.6-3.7 c0.1-0.1,0.2-0.2,0.2-0.3c0.1-0.2,0.1-0.5,0-0.8c-0.1-0.1-0.1-0.2-0.2-0.3l-0.1-0.2c0.5-0.6,1.6-1.9,2-1.7c1.1,1,1.9,2.3,2.2,3.7 c0,1.1,0.7,1.3,0.7,2c-0.2,0.9-0.2,1.8,0,2.8c0.3,0.9,0.3,2.2,1.9,3c1.3,0.5,2.8,0.8,4.2,0.8c0.4,0,1.7,0.9,2.7,0.4l0.3-0.2 c1.1-0.6,2-1.3,2.9-2.2c0.9-1.1,1.9-2.1,3-3.1c0.6,0.2,1.2,0.4,1.8,0.5c1.3-0.3,2.5-0.7,3.6-1.4c1.3-1,2.4-2.2,3.3-3.6 c1.1-1.8,2-3.8,2.6-5.8c-0.3-1-0.8-1.8-1.5-2.5c-0.8-0.7-2.4-1.9-1.1-3.5c1.4-1.5,3.1-2.7,4.9-3.7c0.3,0,1.7-1.9,1.7,0 s0.3,2.5,1,2.6c0.6,0.2,1.3,0.2,1.9,0c1.3-0.2,3.1-0.5,3.4,0s0,1.7,1.3,2.2s2.5,1,3.3,0c0.8-1,1.7-2,2.6-2.9 c1.1-0.6,2.3-1.1,3.5-1.3c1-0.1,1.9-0.2,2.9-0.4l4.4-3.4c0,0,0.2-1.3,2.4-2.4c1.8-0.9,3.4-2,4.9-3.3c0.2,0.4,0.6,0.8,0.9,1.1 c1.6,1.3,2.4,1,3.4,2.2c1.1,1.3,2.1,2.6,3,4.1c0.2,0.4,0.6,0.7,0,1.3c-0.5,0.5-0.8,1.1-0.9,1.8c0,0.3,1.4,2.5,1.9,2.4 s3.7-2.3,3.7-2.3c0.5-0.2,0.9-0.4,1.2-0.8c0.7-0.6,1-1.5,1.1-2.4c0-1.1-0.8-1.5,0-1.6c0.6,0,1.3,0,1.9,0c0.7-0.1,1.3-0.4,1.9-0.7 c0.3-0.3,0.7,0,1.4-1c0.8-1.1,1.7-2.2,2.8-3.1c0.8-0.9,1.7-1.6,2.8-2.2c0.7-0.2,1.5-2,2.4-0.6s1.3,2.4,1.8,2.8s0,0.3,2,0.6 c2,0.3,3.1,0,3.3,0.2c0.5,0.7,1.2,1.3,1.8,1.8c0.7,0.4,1.4,0.7,2.2,0.8c1.1-0.1,2.3,0.2,3.2,0.9c0.7,0.9,1.2,2,1.3,3.1 c0,0.5,0.2,0.9,0.5,1.3l0.3,0.4c0.6,0.9,1.8,1.9,1.8,2.5c0,0.1,0,0.2,0,0.4c0.3,1,0.5,1.9,0.6,2.9c0,1.1,0.4,2.1,1,3 c0.6,0.6,1.2,1.3,1.7,2l0,0c0.3,0.4,0.6,0.7,0.9,1.1c0.5,0.4,0.7,1,0.8,1.6c-0.3,0.8-0.7,1.6-1.2,2.4c0,0-0.3-0.2,0,1.3 s0.7,1.8,0.6,2.6s-1.8,1.3-2.1,1.3s-1.5-0.9-1.5-0.9s0-0.3-1,0s-2.5-0.4-2.5,0.9c0.1,1.2,0.4,2.3,1,3.4c0.5,0.9,0.8,0.9,1.3,1.9 c0.4,0.8,0.7,1.7,0.9,2.5c0.3,0.9,0,0.3,0.8,1.9c0.6,1.1,1.5,2,2.5,2.7c1.2-0.2,2.4-0.2,3.6,0c0.3,0.3,1.8-0.3,2.5,0 C537.7,254.2,538.2,254.4,538.8,254.5L538.8,254.5z"></path><path class="st2" d="M393.4,315.5v2.1c0,0.3-0.5,0.4-0.8,0.8s-0.4,2-0.4,2.4s0.8,1.1-0.1,1.3c-1.1,0.2-2.3,0.4-3.4,0.5 c-1.7,0-3.3-0.2-5-0.5c-2.4-0.3-4.4-0.3-5-0.4c-0.2-0.1-0.4-0.2-0.5-0.4c-0.1-0.2-0.2-0.4-0.3-0.6c0-0.2,0-0.4,0-0.6 c0-0.2,0.1-0.4,0.2-0.6c0.4-0.5,0.8-0.9,1.3-1.3c0.3-0.2,1.1-0.7,1.1-0.9c-0.2-0.8-0.2-1.6,0.1-2.3c0.5-0.9,1.4-2,2.2-2h4.2 c0.7,0.2,1.4,0.4,2.1,0.6l2.6,0.1L393.4,315.5z"></path><path class="st2" d="M540.8,152.3c-1.4,0.3-2.8,0.5-4.2,0.7c-1.4,0-1.7-0.5-2.4,0.6c-0.7,1.2-1.2,2.5-1.5,3.9 c-0.3,1.1-1,1.7-2.4,3.8s-1.7,3.6-2.5,4.8s-0.7,2-2,2.9s-1.1,0.7-3.4,2.4s-2.8,2.7-2.7,3.5c0,0,0,0.1,0,0.1c0.3,0.9,0.3,1.9,0,2.8 c-0.5,0.9-0.8,1.8-1,2.8c0,1,1.2,1.1,0.5,2s-1.6,0.8-1.7,1.4s0.3,0.9,0.9,2.1s2.1,3.6,1.6,4.8c-0.5,1.1-1.2,2.1-1.9,3.1l-0.2,0.2 c-0.8,0.7-1.5,1.5-2.2,2.4c-0.8,1.2-0.8,1.8-1.7,1.5c-1.4-0.2-2.7-1-3.4-2.3c-0.7-1-1.4-2-2.1-3c-0.9-0.8-1.9-1.5-3-2.1 c0,0-3.4-0.6-4,0c-0.9,0.5-1.8,0.9-2.8,1.1c-1.2,0-2.4-0.1-3.5-0.4c-1.5-0.3-3-0.7-4.5-1.2c0.5-0.7,1-1.3,1.4-2.1 c0.2-0.6,2-5.4,0.9-6.6s-3,0-4-2.8c-0.9-2.1-1.4-4.4-1.6-6.6c0-1.1-0.4-2.3-1.1-3.2c-0.5-1.5-0.7-3.2-0.5-4.8 c0.3-1.5,0.9-3.8,0.4-4.9c-1.1-1.4-2.4-2.8-3.7-4c-0.9-0.9-1-3.5-1.1-3.9c0-1.6,0.3-3.2,0.8-4.8c0.7-1.4,2.4-3.4,1.5-5.1 s-2.1-3.3-2.6-4.4c-0.7-1.4-1.1-2.9-1.2-4.4c0.1-2.5,0.4-5.1,0.8-7.6c0.1-0.7,0.2-1.4,0.4-2.1h0.6l1.9-0.3l1-0.2 c0.5,0,1.1-0.1,1.6-0.3c0.5-0.1,0.5,0,0.8-0.2l1.3-0.2l1.2-0.2h0.5c0.3,0,0.7,0,1,0c3.2-0.1,6.4,0,9.6,0.2c1.1,0,6.3,4.2,9.2,6 s7.1,5.2,7.7,5.6c1,0.6,2.1,1.1,3.2,1.5c0.4,0.1,1.6,1.8,1.6,1.8s3.3,3.6,4.2,4.8c1,1,2.2,1.8,3.5,2.3c1.6,0.8,3.1,1.8,4.4,3 l1.1,1.1l0.4,0.4l0.7,0.7c0.5,0.5,1,1,1.5,1.5C538.9,151.4,539.8,151.9,540.8,152.3L540.8,152.3z"></path><path class="st2" d="M408.7,101.3c-0.6,4.3-1.7,8.6-3.4,12.6c-1.4,2.1-2.6,4.4-3.6,6.7c-0.5,1.9-0.5,4.2-1,5.6 c-0.6,1.5-1.4,3-2.4,4.3c-1.3,1.8-3,3.1-3.4,4.3s0,1.6-1,3.4c-0.8,1.5-1.8,2.9-2.8,4.3c-0.6,0.8-1.2,1.8-1.9,2.7 c-0.8,1.1-1.7,2.1-2.9,2.9c-1.9,0.8-3.7,1.8-5.4,2.9c-0.9,0.9-1.6,0.6-3,2.8c-0.3,0.4-0.6,0.9-1,1.3c-0.9,1-1.9,1.9-3,2.8 c-0.7,0.7-3.9,2-3,2.3s3.9,0.5,4.4,0.6c0.9,0.7,1.8,1.5,2.6,2.4c0.4,0.3,1.6,2.4,1.4,3c-0.5,0.9-1.1,1.7-1.9,2.4 c-0.4,0.7-0.6,1.5-0.5,2.3c0.1,0.6,0,1.2-0.2,1.8c-0.2,0.6-0.6,1.1-1,1.5c-1.6,2.2-3.3,4.2-5.2,6.2c-0.9,0.6-3,0.4-3.9,1.3 s-2.4,1.5-2.9,2.8s-1.1,0-1.4,2.4c-0.4,1.8-1,3.4-1.9,5c0,1,0.3,2.1,0.8,3c0.4,0.9,2.8,2.7,3,4.1c0.1,3-0.6,6-2,8.7 c-1.4,1.8-2.9,2.7-3.6,3.9s-1,2.5-2.1,3.2s-2.5,0.2-3.5,2.8s-2.8,5.7-3,6.3s-1.5,3.7-2.1,4.9l0.2-0.5l-20.1-1.4l-70.4-5.1h-4.9 l-3.5-1.6c0,0-1.3-2.6-1.6-3.4s-3-0.2-3.5-1s-1.2-2.4-1.7-3.1s-1.8-0.6-2-1.3c-0.6-1.6-1-3.3-1.4-4.9c0-1.6-0.4-3.1-1.1-4.5 c-0.9-1.2-1.5-2.7-1.8-4.2c-0.4-1.6-0.4-3.2,0-4.8c-1.1-1.2-2.5-2.2-4.1-2.9c-0.9-2.3-2.1-4.6-3.4-6.7c-0.9-0.8-1.4-1.8-1.5-3 c0-1,4.2-4.9,5.7-8.4s10.4-21.4,12.1-26.1s9.2-18.8,10.7-21.4c1.5-2.6,0.7-4.4,0.8-7.2s1-2.2,2.4-3.4c1.1-0.9,2.3-1.8,3.5-2.5 l-1.2-1.7c-1.7,1.1-3.6,1.9-5.5,2.4c-1.5,0.3-3.1-0.2-4.2-1.3c-0.5-0.2-1.2-1-2.4-3.7s-3-1.4-3.9-1.9s-3.4-1-6.4-2.5s-3.2-1.7-3.8-3 c-0.4-0.9-0.4-1.9,0-2.9h-4.8c0,0-0.8-0.7-2.2-1.9c-1-0.7-1.9-1.6-2.5-2.7c-1.1-1.9-1.7-3.9-2-6.1c-0.5-1.5-2.2-1.8-3-3.7 c-0.4-2.4-0.4-4.8,0-7.2l1-15.6l1.2,0.2c0.2,0,4.2-1,4.8-1.7c0.5-1.2,1.3-2.2,2.2-3.1c0.6-0.3,2.6,1.5,4.1,1.3s0.7-2.2,1.9-2.8 s4,0.2,4.7,0s2.2-2.5,3.8-3.7s2.1-0.5,2.4-0.5c1.3,0.5,2.7,0.9,4.1,1.2c1.1,0.1,2.2-0.2,3.2-0.8c1.9-0.2,3.8-0.1,5.5,0.5 c1.4,0.4,3.6,1.7,5.1,1.2s1-3.8,1-3.8c-0.4-1.1-1.2-2.1-2.2-2.8c-0.8-0.5,1.7-3.7,1.7-3.7s4.5,1.9,5.2,2s1.8,0,3.3-1.5s5-1,5.5-1 c0.9,0.6,1.7,1.3,2.4,2.1c0.5,1.4,0.5,2.9,0,4.3c-0.8,1.4-0.6,4.9,0.4,5.1s4.2-1.7,5.5-1s4,4.1,4.9,4.6c1.4,0.6,2.7,1,4.2,1.4 c1.2,0.3,2.4,0.8,3.5,1.5c1,1.6,1.9,3.4,2.6,5.2c0,0.5,1.8,2.1,2.5,3s1.9,1.8,1.9,3c0.2,1.8,0.2,3.6,0,5.4c-0.4,0.6,0.1,1.5,0.9,3 s6,5,6,6.3c0,1.3,0.4,2.6,1,3.8c0.4,0.4,1.3,1,1.4,1.7s0.3,3.8,1.3,4.3c1.9,0.6,3.8,1.2,5.8,1.6c0,0,2.9,2.5,4.2-1.5 c0.5-2.5,1.4-4.8,2.7-6.9c0.8-0.8,3.1-2.7,3.1-2.7s1.1-3.8,1.6-4.8c0.7-1.1,1.7-2,2.9-2.7c1.1-0.6,2.4-0.8,3.3-1.4 c1-0.8,1.8-1.7,2.4-2.8c0.4-0.8,1.8-3.3,2.9-3.7c1.2-0.5,2.4-0.9,3.6-1.2c0.5-0.1,1-0.2,1.5-0.4c0,0.2,0,0.4,0,0.6 c0.3,0.7,0.5,1.4,0.5,2.1c0,0.7-0.2,1.8,0.3,2.4c0.9,0.2,1.8,0.3,2.6,0.2h2.2c1.2,0.5,2.3,1.2,3.3,2.1c1.1,1.5,2.2,3,3.1,4.6 c0.6,0.9,1.6,1.5,2.7,1.8c1.1,0,2.2-0.1,3.3-0.2c1.3-0.1,2.5-0.1,3.8,0c0.6,0,1.9,2,1.9,2l-1.3,1.8c-0.5,0.7,2.1,1.5,2.4,1.6 c1.3,0.3,2.7,0.3,4.1,0.1c3.2,0,6.4,0.4,9.5,1.1l0.9,0.2h0.4l1.5,0.3l0.8,0.2l0.5,0.2l1.2,0.3l2.2,0.6l1.4,0.4l1.1,0.3l2.2,0.7 l0.8,0.2l4.9,1.5l1,0.3C408.9,95.6,408.9,98.5,408.7,101.3z"></path><path class="st2" d="M500.9,326.9c-0.6,0.5-3.5,1.4-4.2,2.1c-0.9,1-1.8,2.1-2.5,3.3c-0.4,0.8,1.8,1.3,1.3,2.4s-0.7,1.7-2,2 s-2.4,1-2.4,1.6c-0.1,0.9-0.2,1.8-0.1,2.8c-0.2,0.9,0,1.9,0.5,2.7c0.7,0.8,1.4,1.4,2.1,2.4c1.2,1.4,2.2,2.9,3,4.5 c0,0.5-0.4,1.6-0.2,2.2l-5.3-0.7c-0.8,0.8-1.6,1.6-2.2,2.5c-0.1,0.5,0.4,0.9-0.8,0.7s-1.3-0.3-2.3,0s-3.3,0.7-3.3,1.9s0,3,0.8,3.4 c0.4,0.2,0.7,0.5,1,0.8c0.3,0.4,0.4,0.8,0.5,1.2c0.1,0.9,1.1,1.4,0.1,2.5s-4.4,0.8-3.3,1.4s3.9,2.1,4,3.1s1.6,1.8,0.1,4.2 s-2.8,4.5-3.4,5.5s-0.5,3.5-1,3.9c-1,0.9-2,1.8-2.9,2.8c-0.9,1-1.5,0.5-3,1.1s-3.4,0.9-3.4,1.8c0.2,1.5,0.5,3,0.9,4.4 c0,0.1,0,0.1,0,0.2c-0.9,0.3-1.6,1-2.1,1.8c-0.5,1.7-1.2,1.3-2.4,3.2c-0.6,0.9-1.1,1.9-1.5,3c-0.4,0.8-0.7,2.3-1.1,3.2 s-1.2,1.9-0.7,3.2s0.3,2-0.2,2.3c-0.6,0.3-1.2,0.5-1.9,0.6c0,0-6.3,1.2-7.1,2.4s-1.6,2.3-2.2,2.2s-2.4-0.8-3.5-0.9 c-1.6-0.5-3.2-0.7-4.9-0.6H445c-0.6,0.2-1.5,0.5-2.4,0.9c-0.1,0-0.3,0.1-0.4,0.1l-1.5,0.5l-1.6,0.6l-0.5,0.2c-0.5,0.2-1,0.3-1.3,0.4 l-7.1,1.8l-1.8,1.6l-2,0.5c-0.8,0.6-1.6,1.2-2.4,1.9c-0.8,0.6-1.7,0.8-2.7,0.8c-1,0-2.1,0-3.1-0.1c-0.8-0.2-1.6,0-2.2,0.4 c-0.9,0.3-1.1,1.2-1.6,2.5c-0.2,0.6-0.5,1.2-0.9,1.7c-2,0-4-0.3-5.9-0.7c-0.7-0.1-1.4-0.4-2.1-0.8c-0.8-1.2-1.3-2.5-1.4-3.9 c-0.1-1-1.5-1.6-1.8-1.8c-0.8-0.9-1.3-2.1-1.5-3.3c-0.3-1.5-0.1-1.1,0-1.6c0.2-0.9,0.2-1.8,0-2.7c-0.1-0.8-0.1-1.6,0-2.4 c0.5-0.8,1.2-1.6,2-2.2c0.6-0.7,0.9-1.6,1-2.5c0-0.4-1.2-1.8-4-1.8s-1.7,0.5-2.4,0.5s-1.3,0.1-1.6,0c-0.6-1.1-1.1-2.2-1.5-3.3 c-0.8-1.7-1.2-3.7-1-5.6c0.4-0.6,0.6-1.4,0.7-2.1c0.1-0.4,0.1-0.8-0.1-1.2c-0.2-0.4-0.4-0.7-0.8-0.9c-0.4-0.2-2-1.3-1.9-1.7 s1.6-2.4,1.6-2.8c-0.6-1.3-1.5-2.3-2.6-3.1c-0.6-0.3-1.2-0.3-1.8-0.2c-0.4-0.3-0.9-0.6-1.4-0.8c-1,0.2-2.1,0.5-3,1 c-1.3,0.6-1.1,0.9-1.5,1.1c-0.2,0.1-0.5,0.3-0.8,0.3c-0.3,0.1-0.6,0.1-0.8,0c-0.8-0.2-1.6-0.4-2.4-0.5c-0.5,0-0.9,0.6-1.1,0.7 c-1.6,0.1-3.3,0.2-4.9,0.4c-0.8,0.2-1.6,0.1-2.4-0.3l-0.8,0.2l-0.7,1.3c0,0-1.3,1.1-1.5,1.5s-0.5-1.3-0.6-2.1s-1.5,0.2-1.5,0.2 c-0.7,0.5-1.4,0.9-2.1,1.3c-0.4,0.1-0.6-1.4-0.6-2.1s-0.3-1.9-0.5-3s-0.6-0.8-0.6-0.8c-1.1-0.2-2.3-0.3-3.4-0.4 c-1.4,0.2-2.8,0.6-4.2,1c-1.2,0.1-2.4,0.1-3.6,0c-1.3-0.2-2.6-0.8-3.6-1.7c-0.4-0.6-2.4-0.9-2.8-0.9s-1.3,0.9-2.1,1.3l-0.7,0.5 l-0.2,0.1l-0.6,0.5l-0.6,0.4l-0.7,0.6l-0.4,0.3l-0.3,0.2l-0.6,0.5l-0.3,0.2l-0.2,0.2l-0.2,0.1c0,0-0.3-2.1-0.3-2.6s-0.5-2.6-0.5-3.5 s1-1.3,2.4-2.4c0.3-0.2,0.5-0.5,0.6-0.9c0.4-0.9,0-1.9,0.4-2.9s2.8-1.8,3.6-2.6l0.2-0.2v-0.1l0.1-0.2l0.1-0.2 c0.1-0.1,0.2-0.3,0.2-0.5c0-0.1,0-0.2,0-0.2c0.2-0.5,0.3-1,0.4-1.4c0.5-1.3,1.2-2.5,2.1-3.6c0.7-0.7,3.2-0.7,4.8-1s4.1-1.1,4.5-1.1 s2.4-0.9,3-0.9c1.1,0.4,2.2,0.7,3.4,0.9c1.5,0,1.5-0.1,1.9-0.6c0.9-0.7,1.8-1.3,2.8-1.8c0.7-0.4,1.5-0.7,2.4-0.8 c1.2-0.2,2.4-0.2,3.6,0c0.9,0.2,1.9,0.1,2.8-0.3c1-0.3,2.1-0.2,3,0.3c1.2,0.4,2.3,1,3.5,1.5c0.9,0.5,3.6-1.3,4.1-1.5 c1.2-0.7,2.3-1.5,3.4-2.4c0.9-0.6,1.7-1.3,2.4-2.1c0.5-0.7-0.2-1.4-0.3-1.9s-0.6-2-0.7-2.7s0.7-1.5,0.9-1.8c0.1-0.4,0.1-0.7,0-1.1 c-0.1-0.4-0.3-0.7-0.5-1c-0.5-0.3-1.2-0.1-2.1-0.9s0.3-1.8,0.7-2.8s2.1-2.1,2.6-2.8c0.7-0.6,1.5-1.1,2.4-1.5c0.6-0.4-0.2-1.9-0.8-3 c-0.7-1.1-1.5-2.2-2.4-3.2c-1.1-1.2-0.8-1.7-1.1-2.5s0.4-0.5,1.1-1.6s0-1.1,0-2.5c0-0.9,0.2-1.9,0.6-2.7c0.3-0.5,1.7-0.4,2-0.4 s1.6-0.3,3.1-0.6c0.9-0.2,1.7-0.6,2.4-1.2c0.7-0.5,0-1.4,0-1.6c-0.5-0.6-0.9-1.3-1.3-2c-0.4-0.7-0.8-1.4-1.1-2.1 c0-0.5,1.4-1.6,1.5-2.1s-1-1.6-1.5-2.4s0.9-1.9,1.5-2.1c0.4-0.1,0.9-0.1,1.3,0c0.3,0,1.5,0.5,2.4,0.6c0.2,0.1,0.5,0.1,0.8,0.1 c0.3-0.1,0.5-0.2,0.6-0.4c0.5-0.3,0-1-0.5-1.7c-0.4-0.6-0.7-1.2-0.9-1.8c-0.2-0.5,1.1-2.4,1.1-2.4s1.9,1.4,2.1,1.7 c0.6,0.7,1.3,1.4,2,2.1c1,1,1.2,0,2,0c0.8,0,1.6,0.1,2.4,0.3c-0.2,0.5-0.7,0.2-1.1,1.6s-1.2,2.6-0.6,2.7c1.4-0.1,2.7-0.4,3.9-1 c0.3-0.4,4.4-3.9,4.9-4.5c1-0.9,2.1-1.8,3.3-2.5c1.5-0.7,3-1.2,4.6-1.6l0.6-0.3l1.9-1.2c1.6-1.5,3.5-2.8,5.4-3.9 c2.3-0.5,4.7-0.6,7.1-0.4c0.7,0.6,1.4,1.2,2.1,1.9c0,0.6-0.2,1.2-0.5,1.8c-0.6,0.9-1.5,1.9-0.9,3.1c0.2,0.6,0.5,1.1,0.9,1.5 c0.4,0.4,0.9,0.7,1.5,0.9c1.1,0.3,2.2,0.8,2.8,0.3s0.9-2,1.9-2.4s0.8-1.8,3.4-1.1c1.7,0.4,3.3,1.3,4.5,2.5c0.8,1.1,1.9,1.9,3.2,2.3 c1.6,0.8,3.2,1.7,4.8,2.8c0.9,0.4,1.8,0.8,2.8,0.9c1.4-0.1,2.8-0.4,4.2-0.8c0.5-0.5,1-0.8,1.5-0.7c0.7,0.3,1.4,0.7,2,1.1l3.5,6.1 c0,0.8,0.1,1.5,0.4,2.3c0.2,0.4,3,0.9,3,0.9s1.3-0.3,1.5-0.7s-0.2-1.1,1.4-1c1.2-0.2,2.4,0,3.4,0.4c2,0.7,2.6,0.6,2.7,1.3 s1.6,1.5,2.4,1.5c1.3-0.1,2.6,0.2,3.8,0.8c1,0.8,2.2,1.2,2.9,2.7S501.5,326.4,500.9,326.9z"></path><path class="st2" d="M336.4,382.1c0,0.5,0.3,2.6,0.3,2.6s-1.4,3.2-1.8,3.2c-0.4,0-4,0-5.2,1.8c-0.9,1.7-1.2,3.7-0.9,5.6 c0,1.4,1,2.5,0,3.1c-1,0.6-1.2-1.6-3.2,1s-2.8,3.4-2.4,4c0.3,1.1,0.5,2.2,0.5,3.3c-0.8,0.3-1.6,0.7-2.3,1.1c-0.7,0.7-1,1.7-0.8,2.7 c0.2,0.8-0.3,0.7-2,2.1c-1.7,1.3-4,2.4-4.7,3.1l-1,0.9l-0.4,0.4l-0.8,0.7l-0.5,0.4c-1.5,1.3-3.4,3-4.9,4.2l-0.4,0.3l-0.3,0.3 l-0.6,0.5c-0.1,0.1-0.2,0.2-0.4,0.3l-0.3,0.2l-0.5,0.3c-2,1.3-3.9,2.7-5.6,4.4c-0.8,1.3-1.3,2.7-1.5,4.1c0,0.5,0.5,1.3-0.6,2 c-1.1,0.7-2.4,0.5-2.8,2.1c-0.4,1.6-0.2,2.6-0.6,3.9s0,1.6-1.5,2.5c-0.9,0.5-1.9,0.8-3,0.9c-0.2-0.5-1.4-2.4-1.5-2.6 c-1.2-0.2-2.5-0.1-3.7,0.1c-1,0.5-1.9,1-2.8,1.6c-1.9,0.1-3.9,0-5.8-0.5c-2.4-0.4-1.9-1.3-1.9-2.2c-0.2-1.1-0.7-2.2-1.3-3.1 c-0.6-1.3,0.1-2.4,0.1-3.1c0.1-0.9,0-1.8-0.3-2.6c-0.4-1.1-1.3-1.6-1.4-3.1c-0.1-1.4,0.6-2.1,0.8-3.6c0.2-1.5-0.8-1.6-0.9-2 c-0.1-0.4-0.4-1.8-0.6-2.8c-0.2-1-2-2-3.4-2.7s-1.3,0-2.1,0c-1.3-0.1-2.6-0.6-3.5-1.6c-0.5-0.8-1.4-1.3-2.4-1.4 c-0.7,0-0.9,1.9-2.8,2.4c-3.2,0.2-6.4,0.2-9.6,0c-0.8-0.1-1.5-0.3-2.2-0.7c-0.7-0.4-1.3-0.9-1.8-1.5c-1.1-1.2-1,0-2.2,0h-3.1 c-1.1,0-1-1.3-0.1-1.6s0.9-2.4,0.9-3.5c0-1.1-0.6-0.9-1-1.8c-0.2-0.6,0-1.3,0.5-1.7c0,0,1-3.6,1.4-6.1c0.3-2,0-4-0.9-5.8 c-0.7-1.4-1.6-2.7-2.5-4c-0.8-1.8-1.1-3.8-0.9-5.8c1.1-0.5,2.3-0.8,3.4-0.9c0.2-0.3,0.3-0.6,0.3-1c0-0.3-0.2-0.7-0.4-0.9 c-0.9-0.9-2-1.1-2.8-1.8c-0.8-0.7,0-1.7,0.3-2.4s3.1-6.7,3.6-7.7s1.4,0.2,2,0c0.5-0.2,0.3-2.2,0-3.6s-0.6-1.3-0.5-1.6 s0.6-2.7,0.9-4.7c0.3-2,0.8-1.9,1.2-2.3c0.4-0.4,1.5-1,1.4-1.8s-1.4-1.7-2.2-2.9c-0.4-0.9-0.6-1.8-0.5-2.8h1.2 c1.3,0.1,2.7-0.1,4-0.6c2.4-1.5,4.5-3.5,6.1-5.9c1.2-2.4,4.1-0.5,5.4-0.5c1.2,0,1.4,0,2-1c0.6-1,1.9-0.6,3.3-0.6 c2.8,0.6,5.5,1.3,8.2,2.2c0.5,0.1,4.7,3.1,7,3.3c2.3,0.1,2.1-0.6,2.5-1.1c1.3-0.9,2.8-1.5,4.3-1.8c2.1-0.5,2.1,1.9,3.1,2.6 c0.6,0.5,1.3,0.9,2,1.3c0.9-0.4,1.7-1,2.3-1.9c0.6-1.1,1.3-1.1,1.3-1.1c1.2-1.3,2.6-2.4,4-3.5c0.7,1.3,1.1,2.7,1.2,4.2 c0,1-0.9,1.6-1.7,2.7c-0.6,0.7-1.1,1.5-1.2,2.4c0.5,1,1.2,1.8,2.1,2.4c0.4,0,3-0.3,3.6-0.3c0.7,0,3.7,1.4,4.9,1.4 c-0.2,0.1-0.4,0.3-0.5,0.5c-0.2,0.4-0.2,0.9,0,1.3c0.1,0.2,0.3,0.4,0.5,0.5c1.5,0.8,3.2,1.3,4.9,1.4c-0.2,1-0.6,2-1.1,2.9 c-0.5,0.4-1.7,1.3-0.7,1.9c1,0.6,0.8,1.8,2.6,1c1.8-0.8-0.1-1.1,2.4-0.9c2.5,0.3,2.9-0.1,3.7,1.1c1.3,1.4,2.8,2.6,4.5,3.6 c2.1,1.1,4.4,1.7,6.7,1.9c1.4,0.3,2.7,0.9,3.9,1.8c0.4,0.9,1.2,1.5,2.1,1.9c1.5,0.8,2,2.4,3.1,3.6c-1.2,1-2.3,1.5-2.3,2.4 S336.4,381.7,336.4,382.1z"></path><path class="st2" d="M348.4,228l-0.2,0.5v0.3c-1,2.4-3.4,8.8-4.2,11.8c-1,3.8-0.6,6.2-1.1,8.2s-1.9,4-1.9,4.6s1.4,2.5,1.4,4.2 c0,0.6,0,2.7,0.2,5.1c0.1,3.6,0.3,7.7,0.3,7.7s-0.4,3,0.4,3.2c0.7,0.2,1.4,0.4,2,0.7l-1.4,3.3c-0.4,1.2-0.7,2.5-0.9,3.8 c-0.1,1.2-0.5,2.3-1.3,3.2c-1,1.6-2.1,0.6-2.1,4.2s0.8,4,0,5.7s-2.4,2.1-2.9,4.8s0,4.2-0.4,5.5s-5.3,2.4-6.6,4.4s-1.6,4.4-2.9,7 s-2,4.1-3.5,4.8s-3.9,0.4-5.3,1.3s-1.5,2.6-3.5,3.5s-3,0.8-3,2s0.6,1.4,0.6,2.8c0.3,1.9-0.6,3.8-2.2,4.8l-0.4,0.4 c-0.2,0.1-0.3,0.3-0.5,0.5c-0.2,0.2-0.4,0.4-0.5,0.6l-0.5,0.6l-0.2,0.3l-0.2,0.3l-0.4,0.7l-0.4,0.7c-0.1,0.2-0.2,0.5-0.4,0.7l0,0 c0,0.2-0.2,0.4-0.2,0.5s-0.3,0.7-0.5,1.1c0,0.1,0,0.2,0,0.3c-0.1,0.2-0.1,0.4-0.2,0.6c0,0.1,0,0.3,0,0.4c0,0.1,0,0.2,0,0.4v0.6 c0,0,0,0.1,0,0.1c0,1.6,0,3.2,0.1,4.3s1.4,2.8,1.4,3.7s0.7,2-0.5,2s-4.4-1.4-5-1.4s-3.3,0.3-3.6,0.3c-0.9-0.6-1.6-1.4-2.1-2.4 c0.2-0.9,0.6-1.7,1.3-2.4c0.9-1,1.8-1.6,1.8-2.7c-0.1-1.5-0.5-3-1.3-4.3c-1.4,1.1-2.8,2.3-4,3.5c0,0-0.6,0-1.3,1.1 c-0.6,0.8-1.4,1.5-2.4,1.9c-0.7-0.4-1.4-0.8-2.1-1.3c-1-0.8-1-3.1-3.1-2.6c-1.6,0.3-3.1,0.9-4.4,1.8c-0.4,0.5-0.1,1.3-2.5,1.1 s-6.7-3.2-7.1-3.3c-2.7-0.9-5.5-1.7-8.3-2.3c-1.4,0-2.7-0.3-3.3,0.6s-0.7,1-2,1s-4.2-1.9-5.4,0.5c-1.6,2.4-3.7,4.4-6.2,5.9 c-1.3,0.5-2.6,0.7-4,0.6h-1.2v-1.2c-0.8-1.3-1.8-2.5-2.9-3.6c-0.2-0.1-0.8-0.2-1.8-0.7c-1.4-0.6-2.8-1.4-4-2.4 c-3.4-2.6-1.5-2.8-2-4.3c-0.6-2-0.8-4-0.6-6.1c0.8-0.8,1.4-1.7,2-2.6c0.7-1.4,0.3-2-0.2-3.3s-2.2,1.3-2.2,1.3h-4.5 c-1.3,0-14.4-0.8-15.2-0.8s-5.1-1.2-5.3-2.1c-0.2-1.8-0.3-3.6-0.3-5.4c0-2-0.3-4-1.1-5.9c-0.6-1.3-4.3-2.4-4.3-3.5s1.5-1,2.5-1 s1.4-0.6,1.5-2.6c0.1-1.8-0.3-3.5-0.9-5.2c-0.8-2-1.4-4.1-1.6-6.2c0.1-1.3,0.1-2.7-0.2-4c-0.2-1.1-1.6-2.4-1.7-2.7 c-0.3-0.3-0.6-0.5-1-0.7l-0.2-0.2c1.2-0.8,2.3-1.7,3.4-2.6c0.6-1,0.9-2.2,0.8-3.4c0.3-1.1,0.8-2.1,1.5-2.9c1.2-1.6,2.1-3.4,2.7-5.3 c0-1.4,0-0.7,1.1-2.4c0.9-1.4,1.4-3.1,1.4-4.8c0-1.3-0.9-2.4-2.7-5.4s-1.6-2.4-1.6-3.6c0-0.7,0.2-1.4,0.6-2c0.6-0.9,1-1.9,1.4-2.9 c0.3-0.8,0.3-1.6,0-2.4c-1.7-0.1-3.4-0.5-5-1.1c-1.9-1,0-1.1,0-1.1h-13.1c-1.2,0.1-2.4-0.2-3.5-0.7c-0.7-0.5-0.4-2.5,0.3-4 s0-2.1,0-3.5c-0.3-1.4-0.7-2.7-1.3-3.9c-0.5-1.5,0.9-2.9,1.3-3.6c0.2-0.3,0-0.7-0.4-1.2c-0.4-0.5-0.8-1-1-1.6 c0.1-0.7,0.3-1.4,0.6-2.1c0.2-1.3,0.1-2.6-0.5-3.8c-0.4-0.8-0.8-1.7-1-2.6l2.4-2.4v-4.5c0-0.1,0-0.3-0.1-0.4 c-0.1-0.1-0.1-0.2-0.2-0.3l28.7-0.4l17.2-0.2c0.1-1,0.1-1.9,0-2.9c-0.1-1.2,0.1-2.3,0.6-3.4c0.4-1,1.5-3.3,0.9-4.4 c-0.6-1.5-1-3.1-1.1-4.8c0-0.4,2.1-2.1,2.4-3.4s-2.4-3.3,0-3.3c0.4,0,0.8,0.1,1.2,0.2c1.5,0.7,2.9,1.7,4.1,2.9 c-0.4,1.6-0.4,3.2,0,4.8c0.2,1.5,0.8,2.9,1.8,4.2c0.8,1.4,1.2,2.9,1.1,4.5c0.3,1.7,0.8,3.3,1.4,4.9c0.2,0.6,1.5,0.4,2,1.3 s1.2,2.4,1.7,3.1s3.1,0.3,3.5,1s1.6,3.4,1.6,3.4l3.5,1.6h4.9l70.5,5L348.4,228z"></path></svg>